<mxfile host="app.diagrams.net" modified="2024-01-26T07:52:33.614Z" agent="Mozilla/5.0 (Windows NT 10.0; Win64; x64) AppleWebKit/537.36 (KHTML, like Gecko) Chrome/120.0.0.0 Safari/537.36 Edg/120.0.0.0" etag="eX3lz-SaWB-U_9PjOUWZ" version="23.0.0" type="github">
  <diagram name="第 1 页" id="FTmwFV7w-yaRI836Nbug">
    <mxGraphModel dx="1351" dy="876" grid="1" gridSize="10" guides="1" tooltips="1" connect="1" arrows="1" fold="1" page="1" pageScale="1" pageWidth="827" pageHeight="1169" math="0" shadow="0">
      <root>
        <mxCell id="0" />
        <mxCell id="1" parent="0" />
        <mxCell id="Oz-58_zRyY06g9mLM46B-1" value="" style="shape=image;verticalLabelPosition=bottom;labelBackgroundColor=default;verticalAlign=top;aspect=fixed;imageAspect=0;image=data:image/png,iVBORw0KGgoAAAANSUhEUgAABZgAAAMSCAYAAADnVqFAAAAgAElEQVR4Aezd/49c530f+v47+cU/5If6/nALlL5BUBQF0oLANaAijYAbqBelclHvFW5lwBCrlrahygwgWaCisJLqiLazUSxKYaUIIeN1aCmhwytfdVEqysprsvJKZW1vmC5N0suV8bl5ZubMnjk7378+Z+ZFYDUz5+tzXuczD2fffPTM3zv2wFr4WZzBp05G+GGgBtSAGlADakANqAE1oAbUgBpQA2pADagBNaAG1EAda+DvCZcXFy4n+zoWjTbr7NSAGlADakANjFYDv7T2Ufj5yOceAwvUgBpQA2pADagBNaAG1MAS1oCAecEjuP2CPtov6Lx4qQE1oAbUQB1rQLjcDNjreO+0WZ+jBtSAGlADakANqAE1oAb614CAWcDsX46W8F+OdHz9Oz4+fNSAGph3DQiYBczzrjnn08+pATWgBtSAGlADakANzKsGBMwCZgGzgFkNqAE1oAbUwIxrQMAsYJ7Xh3vn8YukGlADakANqAE1oAbUwLxrQMAsYBYqzDhUmPeb2vn8RaIG1IAayK8GBMwCZu/L/N6X7ol7ogbUgBpQA2pADaiB6dSAgFnALGAWMKsBNaAG1IAamHENCJgFzH55mc4vLxw5qgE1oAbUgBpQA2ogvxoQMAuYhQozDhV0fPl1fO6Je6IG1MC8a0DALGCed805n35ODagBNaAG1IAaUANqYF41IGAWMAuYBcxqQA2oATWgBmZcAwJmAfO8Ptw7j18k1YAaUANqQA2oATWgBuZdAwJmAbNQYcahwrzf1M7nLxI1oAbUQH41IGAWMHtf5ve+dE/cEzWgBtSAGlADakANTKcGBMwCZgGzgFkNqAE1oAbUwIxrQMAsYPbLy3R+eeHIUQ2oATWgBtSAGlAD+dWAgFnALFSYcaig48uv43NP3BM1oAbmXQMCZgHzvGvO+fRzakANqAE1oAbyqIHPPBlx/EzEg89H/J8vRfzW15s/6XlaltalbVbtfv3K6Yh/8R8jTiSPb/iZp0EyT/bpHkyr7gTMAuapFdO0itJxpvcGZ8lSDagBNZBHDQiYBczei3m8F90H90ENqAE1oAbmUQO//HjEr321FSgPGZ6mwDntk/adRxvTOX71qffjN869Gv/3hafi3176Qnzpzz7X+EnP07K0Lm0z7fb8s2cEyvMMlPudK92LadxfAbOAeSqFNI1idIzpvKk5clQDakAN5FcDAmYBs/dlfu9L98Q9UQNqQA2ogVnUwK/+9mjBcjX8S0FzOsYs2lYc8/jZt+Lzb34pvnz5Xw/1k7ZN+xT7T/KYRs1Wr9nrxZpMYySzgFnAPJUOYpLOxb6z/YuDL181oAbUwOJrQMAsYPY+XPz70D1wD9SAGlADamDWNZCmuxgUlv7z0xF//99H/KPn+m+bjjXt9v7Dr3zYGJk8bLBc3S6Nak7HmKRdaWqGQUbWz9co3ZNJ7mnaV8AsYJ64iCYtQvtP/kZmyFANqAE1kHcNCJgFzN6jeb9H53F//revRKSfeZzLOTirATWgBuZfA5/9neFCwV8pvgfqPwzePh1zWvfyn5z5fmP6i2poPOrrNI1GOta47TLn8uD7Pu+APd2Tce9nsd9MAuYHHz8ba58/GccWHN7W4fzFjfA4eTEzZKgG1IAaUAO51oCAWcCca21q1/z6TeHy/KzVNWs1oAbmXQPDjFwuQsNRAua0zzRGMqdAeNQgedD244bMhYPHvILmSd8zUw6YT8baa9fj9icR8cnduPbamTg+Usi8EVu3NuPUkX3OxeVbO7F+ZPnakRB7fTti68LR5bmGzZPeQPv7i1MNqAE1oAbUQP41IGAWMHuf5v8+nfU9EjCrgVnXmOOrMTWwmBpI8yWPEpaOGjCnY08yJ3Oa0iKNOh4UGI+6Ph1znOkyRrGy7Wi1NYnXpP3HFAPmp+PZd/di/95OnH/qZBx/6q3YuncQH7/9rXhwiGC4GQCXA+YUKu/F5TMpLB4QMF/Yib5/uobWeYTQk95A+y/mLxDu3NWAGlADamCUGhg/YL4d76UPOXv34pG1j+KXvn4vflK8bj1/79vN8Dad45HNXxz9SLR3P97bO7o4LfnJ5t9Ev7a98GFrvw9v992u3zHK60YxK7b9q4j4WvG/kpYev/ZRs23d1hX7Vh8ffS/iJ+8Nrt20XdyOeLR0vsayj5r7pjb91VuDj1M9/0SvX4nGvU/Xe+l2xKVXep+/alZYda+C1tLK9XZt61sR0TLour7kNbf1qU09aqTahkXf13kHzOWarVq0X7fqqlUFAx9Geb+1z7GIunDOif9XZ/evdx/Lhk25Bn758dG/0G+cgDl98V86V/ncwz5P8yaPGh4Pu3069rDtKLabJAS17+wC5+L+jPs4nYD54Rfj/I2D2N/djKceKQW3j3wrLu8exP6Nt+Kxh0vLewbO/QPmre3iM08RPLeOmQLm7Y3GaOajI5jLxxymDfPdZtwbZ7/xOlZu3NSAGlADamARNVAOWUd6/u37zQ8/7YC3FDh//W/iT7oFwEUI3d7nMIAuzl0E0eVwuljX8Vicvwi4U8g9wc/I9q9EfK2RsDdD5hScDvrTL/hNgdswAXM6TzXArYZ18w6Zy+fvFjCnELm49m4Bc7Gu6z1IIe0wAXMr3B7GsOt5ZhH6jRAwL/q+zjtgTvdgYJ2mgLl677vVQ+kfOOZ2b2dRL445chDkfvvcpAb618CvfXX0wG+cgDkFq+lco96P42ffmlm4XITQ6RyjtGvckPhPdyP+5486vb/2o4jY7VzW7/hp817bN45V+aD5o93KgtLLH73XOm/6rFpqw7v3Iv70G8116Xl5XdG2bucqHbr9tLjedO2j/Cn2K843zOMo97DbtpMHzI//UXz/VsTt9y/GWrcQ+eEz8dL7d2N/97149vHe4W0Khst/ti6kUcvlJRHRGIlcHtl8NGBujnYuT5MhYO5243suq4xi+PmdiNf/8+id2Keej/je7cP795MfRvy6D3Qjdbo97xFHjmpADaiB2tXAeKHs38SftEYeHwbBpYC5FfS+8OEv4k++/TfNEc5pWSsU7hidXFnWLWBuj1Y+/Ou7/7M+AXav6x3377YUnnaEmiOEiuVzlkPaYnk1dE6vizC2I5BM5/woojoauNi2ON6sHlOo3OtPCsOnHTA3rHqdsNvyRY1sHrIWcrivMw2YWw7dbk23Ze33k4C5dn+fzKqPcdwxfuf1ecz75+Too5dT0DduwJxGMY/6Xv38m18aEDD/Xry/3+1vioibP/rXA/Ztrk/nGKVdw4SdR7b584j/eS/ia63gtrw+hbjtsLfL+mLbtF0KXlPI/O6f9w6lU/jbEdC+1/k67V8EyOnYKfwtn7+6/rdagyXK+xw5xzea7Rq0TXEt6bHbMcrrR30+yj3stu1EAfODL7wTH98/iI+/uz5gruWT8eR3d2P//m5ceq7fl/8VYXARLhcjlctTZJSeD5oao/oeaY1yzmk+5m43ZaHLWgHz9v8bceJcxOvp/8M9iPjKiH95fvN/NEfCfPUPIx79dvN/6dz+y9E7w4VajHjN2ur+qgE1oAbUQK8a6BW49l3edfTw0YC5eoxmUPyL+JOvH442rgbK3bY5uqx1rrgfL0wwarncvl4+vZZXw9/Gdl0CxSMjeruEbSkILkLTYnRy8bodEqf9WkFpce5qsNsO5ub5OSG1qzTK9Mj1nhwcMFc/Fh95XTp+cm7YVELjdN621Tyvv9+5utTDkXrK5L7OPGCu3MMjDt0cK4NLjtRFZYEpMvw9N1Rddas1y0YK4DjX4732mSd7h5T9wr1xA+Z0zHTOYevjV596f4iAuBkwHwmT3/8v8bMYPmRO5xq2Xf1seq1L4XA5FG6MRK78HdV+2SWIrobQ/ULmFBiXz5UC4nLgXA2QO16nILw0mrnX9Yw6grnbcTrO2ydY77Zvt2XD3r9e240dMD/02k7sx9249vLTR75or1uA++DjZ+PJN3fiduzG60/0GslcBMxpfXmkcilU7jIfcxr9vHv1XBx7YCO2ojx6OR2nfMxe513c8l43Zujlp5v/avHz1jtp7ycRX3m+1OE8H3HpJxHF+p/83b/EfO50aX31L/rWh8z2Lw+tD+3FL2LDtiuN+Cn/Atb45azyS8qwx7Jdn/tVvX9eD/2XmrpSV2pADcyzBsoh63DPi3C3NP9yI+Q9HNXc/hDdetIcsdxl/Ye323MzFyOhj4bJH0Wx7L0Pu8zjXD1ZRBTHGu56mmH3qOaPvtX8R+oi9P1UrzCx9fmlV/hVBLJFoFweiVzep2N0cvVzSzrHOAHelP5ufrQ053JxPWXPmYxg7jJiu0spNBaVHcvtmvnzVk10bVfrHuZyX+ceMHd5X6TaKX9G/1S3uk6m1VrvcqyZ39spvXe009/3akANzKoGjp+Zf8Cczjns9fzGuVfHD5gv/+v48o9ShPmj+F56PuAnnWvYdnULN/stK4/UbQSzacRwZRRxe/8uI53Tth2BcWn6im7L07QY7eOlbfsFzOl8XT+E9FjYCr/L11Scq3pN1W3S+qH+dAnYi3P0exz2/vXaboKA+XoUo+i3LgwOaNtTYNy7Hi99odf25TC4V8CcQuSdWG/M49wtUF6L5jzMzXUN/AxHLhchfK8bM+zyr/63iJ//j4hH01w8X434akrYDyK++QcRn3k1Yucg4ic/iDjRWv/K32378/8W8ZleH9haHx67BsynIy4V05bsR7zySsT//pfN8m78UnG5+fybzzXneyt/eC0HzCl8TlNvNELv/Yjffa7ZQf7uD1tvlf2Ir5VD8l5ttXzoDnzYerLd8H9Zs2KlBtTAKDUwSgibtm2Gva2/F/fuxQtHvryvc4Ry+/jF/Mtp1HHx/MPbncdrHbb5cHicImBujHwuRk+naTBKx2mfZ8wRzaOYtbctBVuNzxMd7a+8qIbC6bNCKSwrRiWnzyJHArTS54oUSB4JTFvtSCFzx59u5ywdq30dEywbeN3pS//6zME8ThuqI5g7pguZ4FrGaUvffXr9o0OXNi76vs4jYG7MWV4Kh1PttD/Xt2q4Y+BIWlbavmFdes+07Uvvw/ayLsbW+btRDaiBVaqBB5+vBJF/N83B//G7EZ890//nfy36zy/13y4d55+/2HmOdM5hjYf7cr8eI5gbgfK342bsxfvvDw6YR/myv34hZ7d1afRx+88I4WkjjG7v2PtJeXRyMZ1FY+siaO4XMFdGDh8Z/VxZX1zfOG0rB9DJpDydRnndj0YwKtqTHoetq17bjR0wFwFpM8ztFRgfLj8cZXy4rDjG4WP/gLn9JX8ZB8aH19LvOg/X9boxwy5PH/ZToFve/nN/GfHzNPjoFxF/9ZeVMPm5iDTd9e8WHVr1sfXhsf1BtPWhPX0QPfFuRPpXha8+G/H6bjOo/tSrEWl6yPb6OxEnW18o0jdg/mHEP/1qxLsHETvvRnzqD5sjlL53KeIrP2wdu9o2rzvuc/mee975HuDBQw2ogdxqYNRgthowP1IKdKvTXZSPfbhfZ8Bc3qZ43hEot0PtFDgXo6Bb4fOiA+YR/v5PAWJHeNb6Urric00RMPccCZ3O9VYpkGt9pin/SlL+fLOoOkuhYfU607UX15k+HxYBeSNML19A8QWGrc98lVXt45YD5nTs8nV3O/+iLPrey3LtZHBfZx4wt/6xo/yPAenedfwfANUwuUcdVOuieF3U1cLud/meeu53AzWgBhZcA2lO5HJA9y/H+BK+YfrT4187PM8o8zD/20tfGDjy+MuX+wXM/dZ1hs7pXMNcS9qmbDb08+rI5Na8xsXfT+XHNB9yCno7guMeQW86fyPsbYXJ7ak0Wl/c1xFul0+SnncJcvuNMi7P09xx3a1R0Gk0dTpft1HVaftyiNytXUXgLGAuRiTf2oz1q3uxe3UjLt/qNgdzCmdLo5jPbKYvZBzwpzjOYbA7ahA8q+2HfQP22m6eAXMaLV2M9ml/WD3d+nbqyxFf+UFE/PdmoJ3aVf1FpPhwW16XfkFpbHcuYici/urPIz71jYivTOFfT3qZWS54UgNqQA2ogXnXQBHqDv347XvxJ1/vMd9y5Qv7Oo5ZjDyujGDu2KYVVncGzEWoXAqm+366Gm9e5nHdy4FZ+3lplGXHKM3SL5uNkLQUqLUD5tacxcVnk3a7qmFbZXRyx3lK52/vXzr3tJelc/f6k4LlfgFzORRMx2mE061rLa9r27bmYC4+y6Xlg/6UjzPta+97vNZgiL7nz+S+zitg7vgHgVKddiwvajWtr9R5edR/275LvbTXFcfyOHS4ws7nEDWwHDXwW1/vDEv/5TOzua5ywJzOOWz9fOnPPje3gDmda9h2dYSrfYLf9nZdviSvvW6Y/YfdpnWeRhDcCpjTebpNVVGEueV2pO3SrCLpp7z8t1oBcq99qkF1O+SutLsaMJePV163JAHz6Th/4/Dj5/72xXioERw3p61ozpPcO+QtptFobtdrioy1OJZC5VubcSodu/w8felfa3Tzqat70Zy6o3yc3ueeVYA86LjDvgF7bXdkiowU8h5EvP5qxGf+IGI7TZGxNZ0pMhqhcpre4l7EXvr5YbNjS7+opFHI3/xJxN77zWXpF5Hil5LU9sYvRaVRFcW6tLx4frL1Zk4hc88pPHxwHbrT7lUzlg//FzIrVmpADUyrBroFvIOX9QiY16rLUzh8GPg2g+NSUPzh/Wj9Fdv+kJbma25vV57bee9elEdLN9q46BHMpYAs3Y/0GaMRJpaWp88Txejd9j1rBWLlkb7lgDltV/58kl43AulihG+XzxzF/sVnor6hZpf9220bY135GtPz4rqK5alNhUHbqOzVOmd73y6BYdqvOG7XMLJ6jDGuYxKDrvumOihqokd7crmvswyYi9psGJXeG405ltN9bc1nXtzfwrJjv8KvvH+xrEu9FMfw6O9KNaAGVrUGqgFzChVnPUXGfAPm4afImGXAXB2t+6fVD7btT7itJ6WRxf1GFDe2Lm3bGPV8L2LcgLkIedNxyuFv19HUrdA5fSFg9UsB0/bFn/JxiuOnOquapO2LbZckYE5hbutL9srB7wODA+ajU2j0DoZTeFwEyaseMH9qjl/y1/hlqjQKqPhL5Hc/ivj5DyIu3+n8xaYIjtN26ZeZYnREOXxOy8vbfWmzOTdz8QtScQ6PPrSoATWgBtRAnWtgcJjc/BK8zu2qQfLhNp2jj1vbpfmS21NdlAPm5vLOY5dGLKeAuR0iHw2jiw+4Rx5b5+s87mEbuy0f5x52BJ3l4Kv0vAhZizDta60wrPwZI527W5jW+IzS5fNNEUp2hMit4xafaca5nnH3aV9j63NVERSWlxfHnkbAnI6bzpGONdSf6ijYIpic9WOqgwEBc+GSHhd5X2cZMFfroPyPBe3r7nKPyv8w0XYqvbfaywTMBnnM+r3s+GqshjVQnSKjY9RqZfRped2vFNf6HyojXfvsU+w/1ykyRviSv5lPkdHHpjrCuLBKj+VQtry88bw67cY3mlNrVAPmFOaWp63odsxqG4pt0vLqCOVGgFwE26WR0kX70vpiOo20e5q2oXotqU1FoFxdt/IBc9eRvmlEctc/acqLZpjddXWvhcWo59ao6q7nnPO69oe2ooNZ9GPrw2M74G19aL/0hxHlKTLSF/IVI5gf/a/NqTHKH2TT8/IvdelDb/HLWHldWt7YLn1B4Z9HnDgZcfL9w6k4svNZ9P1xfh+81IAaUAO1rIFuYevgZb0D5sNA+Hb8UmtajPe+3Qx3m+Fz6cNQ1yC4M2DuN69zx7lKc0EPbv/RsHmcv9erny86PqO0guF2uNYKxi6X550tvWe6BcypTY1/RG+Fb43nlc8xRSiZVIsv+auOoh7n2kbZp32NRcBcGr3TLQQvliW/6p9GOF2E5ZWVjXXdAsaSY2pLEXCPcg0z2bb1WbW43l7nyOG+zixgHnC/kkm5ftpGvULjbsfrtW2pLtrHtayWf0+5f/4hXw2MXgPdvuSvCAn7PU4SMM/tS/7e/y/xs4i4+aPOuZa/3Pjyv6PLZvklfw3L1ojf9LGlHQC3Qtoi3O0W5hZBb9f7MUzAnD5vFWFwK+Q+cswux0nna4TDlX2r7SiHycW6bsuK4xWh8lIGzM9eO4i4fzdu30k/B7Efd+PKC2tx7Ikr8XHlA+uNi6cjh1A3pzZk14mXAuZ/+nzEN/978830pZOtL/k7iPjdv5u4/pXiS/7SB8hvN0cdp9tdfHngN/9HMyT+6h9GPPrt5hf4bf9ls8NOv+j8/IcRJ/6w+YWDjeX/ufllgZdfjfjN9GWCXUYSZWflw7MPz2pADagBNTBkDYwTxv7SkakwKoFtMeo4/QVcmtqiPfVFsb4dMBeh8uEHtDRVRmpbI2AuHaOjvUeOU2nHCKHzyH+XF+Fh67EdLif3UgjWEQC/V/kFsbVvcdX9gtEUQpb/gbxbKJmuoViejtnRpiHrYWSHynG7Bbxlg+If9dN50ueucvja3rdLYFiE+V3DyFIb2scoLZv0mobZv+Maixs66PGj5v3K4b7OKmBu36/WPR1E0lj/d/8HYvIsu7TvQem9lY7d/tNlBHR7nznXgvNW+jn+Po+ogYXUwPEzo49ATkHhJAFzOuewfeBvnHt16DmY2319+8levP/+0SC5V8CczjVsu4ogddjHalBbDZKLgLlxvEog3Ni3fU1dnlQC4Mbo4mKzNJK4CLRLI6jTsiLoTedMr9sjnEtBeFrWaGt5fek4jXNVzp+O1y9gLprW97HLMYexHvb+9dru700etj4RJ544G48WP48/0Q6Rj3/+zOHyL5+O43MeHTz5tc1+zuZeN2ZhyysfTH9+pzmfc6M9z0VjCpRGId+LeOWVVsfW+oK+jlD4+YjvlT6Q/uSHEb/e+kuvETD/XYD883Sg/xlx8nTzOGlUdOPPQcT3vjN8p7kwK3+JD/0XiHukntWAGlj1GugIbEcIZJdtv1WvA9e/2n3hrAJmdbXadeX+u/9qYHE18Jkn5x8wp3MOe89/9an3hwiYhw+Re4XLaXk617DtGibsHGabchhcTClR3a8aBnes7zLyuBzudgTXpWC4fMxi+yJIro52Ls7XnjO5Nd1Fo+2t58U2xWNxzOJ18Vg+b7Gs22Ntp8ioQ4ibcxuHfQMu03YpYO46WkJgO3SHvEz14FqG/4DAipUaqG8NLFtQPO71qOH61rB7N/m9EzBPbqgOGaoBNZBbDYwzD/O4I5hHmX+5cPr8m1+aeciczlGcb5jHbqGoZeP9Y8U03Ya5d/22mcII5tmP8s05IJ60bf1uzrKuEzD7ULCste261LYaUAO9amDcQHbZ9uvlY7n3zirUgIBZna9CnbtGdb5qNfBrXx09GBw3YE7nGtX3+Nm3Zh4wp3OM0q5phqKONXr99TIb5R5221bAvOBpO7rdFMtG7zSZMVMDakANqIGca2DZguJxryfne6Rt+pBZ14CAWY3NusYcX42pgfnXwC8/HjHqKOZxAuZ0jnSuce5x+gK+ftNbTLJulC/3K9reK+C0fHph8TiWxf0Z91HALGAeq4Mat+DsN95fCNy4qQE1oAbqXQPjBrLLtp86rncdu3+T3T8B82R+6o+fGlADudbAr/72aMHgOAFzOse41/8Pv/JhfOnPPjf1kDkdMx171HaNE37aZ7QaG8dr1PtY3V7ALGAeuTOoFpHX43f07NipATWgBlajBpYtKB73etT7atS7++w+qwE1oAbUwKrVwPEzwweA//x0xN//9xH/6Lnh9knHntTzn5z5/tQD5nTMcdo1Tvhpn+FqZRKnce5leR8Bs4B5rA6hXESeT97ZM2SoBtSAGljuGhg3kF22/dT5cte5++v+qgE1oAbUwCrXwGd/Z/ohYDrmtExTIDyNkczpGOOGy+laTnx9+k6TBKv2bd6TSetMwCxgnlpnNWkx2n96f3GwZKkG1IAayKsGli0oHvd61GVedel+uB9qQA2oATWgBqZbA6OMZB4UbE5j5HL1/qYpLSaZkzntO860GOV2/Iv/KGAedO/nvT7dk/I9Gue5gFnAPHERjVN49pn8zcuQoRpQA2qgPjUwbiC7bPup2frUrHvlXqkBNaAG1IAaGK8G0nzJo37xXzlQTPtOMufyMPft+Nm34vNvfmnoaTPStmmfYY49aJtfOS1gLt/vHJ6nezLovg1aL2AWME9cRIOKzPrJ36gMGaoBNaAG6l0DyxYUj3s96rjedez+uX9qQA2oATWgBoargV9+POLXvjpa0JyC5bRP2ndezr/61PvxG+debYxq/reXvtCYQiNNgZGep9HKaV3aZtrt+WfPCJlzCJZTG9K9mMb9FTALmKdSSNMoRseYzpuaI0c1oAbUQH41MG4gu2z7qc38atM9cU/UgBpQA2pADcy2Bj7zZESa7uLB51uBc5qD+OvN52lZWpe2WbX7kEbNpqkZzMk8/7A9mSf7aYxcLupWwCxgXrlOrCh+j6v3F5h77p6rATWwqBpYtqB43OtZlL/zeu+rATWgBtSAGlADakANqIHZ1YCAWcAsYD45uzeYzoutGlADakANpBoYN5Bdtv28H7wf1IAaUANqQA2oATWgBtTA8tWAgFnALGAWMKsBNaAG1IAamHENLFtQPO71+GVi+X6ZcE/dUzWgBtSAGlADakANqAEBs4BZqDDjUEFHq6NVA2pADaiBcQPZZdvPe8F7QQ2oATWgBtSAGlADakANLF8NCJgFzAJmAbMaUANqQA2ogRnXwLIFxeNej18mlu+XCffUPVUDakANqAE1oAbUgBoQMAuYhQozDhV0tDpaNaAG1IAaGDeQXbb9vBe8F9SAGlADakANqAE1oAbUwPLVgIBZwCxgFjCrATWgBtSAGphxDSxbUDzu9fhlYvl+mXBP3VM1oAbUgBpQA2pADagBAbOAWagw41BBR6ujVQNqQA2ogXED2WXbz3vBe0ENqAE1oAbUgBpQA2pADSxfDTK/2kkAACAASURBVAiYBcwCZgGzGlADakANqAE1oAbUgBpQA2pADagBNaAG1IAaUANj1YCAecEB8+2f3Q0/DNSAGlADakANqAE1oAbUgBpQA2pADagBNaAG1IAaqGMNCJgFzAJuIb8aUANqQA2oATWgBtSAGlADakANqAE1oAbUgBpQA2PVgIBZwDxW4dTxX1O02b8CqgE1oAbUgBpQA2pADagBNaAG1IAaUANqQA2ogenWgIBZwCxg9q9TakANqAE1oAbUgBpQA2pADagBNaAG1IAaUANqQA2MVQMCZgHzWIXjX3qm+y89PHmqATWgBtSAGlADakANqAE1oAbUgBpQA2pADdSxBgTMAmYBs3+dUgNqQA2oATWgBtSAGlADakANqAE1oAbUgBpQA2pgrBqYOGA+/vkz8egTZ9s/a58/GcdaoW2/dcU2q/5Yx3+V0Gb/mqYG1IAaUANqQA2oATWgBtSAGlADakANqAE1oAbUQKqBiQLmh167Hrfv78WND67HtcbPzbh9/yCuvXY6+q0bLlTeiK3o/Wf36rlWkN1/u+YRdmL9yEjltN9eXD6zFsceOBeXbxXP0+v5/XgjeiOqATWgBtSAGlADakANqAE1oAbUgBpQA2pADagBNVDXGpgoYF7fPojvv1QJY1/aiv3tjei3rluAu75dCZO3Nw6D3gs7Ebc241TX4HcjtnquS21LQXKXgPnCThyG1Gtx7Mxm7Hbbrus5K9c8wTZ1LRzt1umpATWgBtSAGlADakANqAE1oAbUgBpQA2pADagBNTBhwNxl1G8KahsBc+913QLm5rLuYfCpq3udYXBHoDtOwDzMqOdm4L11YXphcrfr9ib0JlQDakANqAE1oAbUgBpQA2pADagBNaAG1IAaUANqoK41kHHAnKatqIxqbr8sj0geJiwub78WKbCOymjl/iH27ELmuhaOduv01IAaUANqQA2oATWgBtSAGlADakANqAE1oAbUgBqYMGCe3hQZR0cw95oXuTrKecQRzGmE9a2d2OoZXrdT7IjyNB0do6anFzh7E3oTqgE1oAbUgBpQA2pADagBNaAG1IAaUANqQA2oATVQ1xqYKGBOX+S3f/8gbt+52/5Jr4sv+eu1rttUEf0D5hQ2F6OQJwuY17fT1B3l4zXDYiOYvYnr+ibWbrWrBtSAGlADakANqAE1oAbUgBpQA2pADagBNbCoGpgoYE6h8EPPbcSlK5txufHzTqw/d7r95Xz91nUPmcvhcXkEczkQLm+TwuH0etCfIpwuRh6n4w3aJ4xg/pk35qLemM6r9tSAGlADakANqAE1oAbUgBpQA2pADagBNaAG6lADEwXMJy7sxP7eblz74Hr75+O9g9i68HT0W9c9XC7C4iIMHiFgvrUZp3pOYVENpNN5yoF1M3Q2gtkbtg5vWG1Up2pADagBNaAG1IAaUANqQA2oATWgBtSAGlADOdXARAHz+vbduPJcMSq49fjce3F7eyP6resfMLdGFjfmSU7TWazFsca8yUWIXA2MR5uDufkFf0OMXm5tsnv1XHtEdu92Vwx6ht1Ht8upGLRF56QG1IAaUANqQA2oATWgBtSAGlADakANqAE1oAbUwCg1MGHA3AqAy4FqCoMbAXPvdd2C2vXtVqJ75Iv1StNZdB2pPFrAXD13I3De3omt2Imt7YhZB8rV849ys1Zl2zt3fx4Hn3wy/L8C2JIAAQIECBAgQIAAAQIECBAgQIDADAVSVpUyq1XJ50a5zmwC5mrw2nidwupUGEXofGGnUSadIfA4czCvRTGSuXmsw1HRncuPjjju2s5ywD7i81Fu1ipsm96o/hAgQIAAAQIECBAgQIAAAQIECBDIUUDIfHR090QB80vbB3HtlZMdU0gcf+V67G9fjH7rBoe0rVHLXUcsr0Ua7XwYMo82grkYKX24fwqRDwPmom1F0Bw92lBsN+njKoTGo1yjkcs5dp3aRIAAAQIECBAgQIAAAQIECBAgkARSdjVK1rUK204UMB9/bjN27x/E/p27cbvxcxD79/fi8nMno9+6SUPZZdp/FYpslGvUVREgQIAAAQIECBAgQIAAAQIECBDIWWCUrGsVtp0oYF6moHdR17IKRTbKNebceWgbAQIECBAgQIAAAQIECBAgQIAAgVGyrlXYVsA84pzJ0w6iV6HIRrlGXRQBAgQIECBAgAABAgQIECBAgACBnAVGybpWYVsBs4A5q3ljcu48tI0AAQIECBAgQIAAAQIECBAgQIDAKoTGo1yjgFnALGDWLxIgQIAAAQIECBAgQIAAAQIECBAYUmCU8HUVthUwC5gFzEN2HjYjQIAAAQIECBAgQIAAAQIECBAgsAqh8SjXKGAWMAuY9YsECBAgQIAAAQIECBAgQIAAAQIEhhQYJXxdhW0FzAJmAfOQnYfNCBAgQIAAAQIECBAgQIAAAQIECKxCaDzKNQqYBcwCZv0iAQIECBAgQIAAAQIECBAgQIAAgSEFRglfV2FbAbOAWcA8ZOdhMwIECBAgQIAAAQIECBAgQIAAAQKrEBqPco0CZgGzgFm/SIAAAQIECBAgQIAAAQIECBAgQGBIgVHC11XYVsAsYBYwD9l52IwAAQIECBAgQIAAAQIECBAgQIDAKoTGo1yjgFnALGDWLxIgQIAAAQIECBAgQIAAAQIECBAYUmCU8HUVthUwC5gFzEN2HjYjQIAAAQIECBAgQIAAAQIECBAgsAqh8SjXKGAWMAuY9YsECBAgQIAAAQIECBAgQIAAAQIEhhQYJXxdhW0FzAJmAfOQnYfNCBAgQIAAAQIECBAgQIAAAQIECKxCaDzKNQqYBcwCZv0iAQIECBAgQIAAAQIECBAgQIAAgSEFRglfV2FbAbOAWcA8ZOdhMwIECBAgQIAAAQIECBAgQIAAAQKrEBqPco0CZgGzgFm/SIAAAQIECBAgQIAAAQIECBAgQGBIgVHC11XYVsAsYBYwD9l52IwAAQIECBAgQIAAAQIECBAgQIDAKoTGo1yjgFnALGDWLxIgQIAAAQIECBAgQIAAAQIECBAYUmCU8HUVthUwC5gFzEN2HjYjQIAAAQIECBAgQIAAAQIECBAgsAqh8SjXKGAWMAuY9YsECBAgQIAAAQIECBAgQIAAAQIEhhQYJXxdhW0FzAJmAfOQnYfNCBAgQIAAAQIECBAgQIAAAQIECKxCaDzKNQqYBcwCZv0iAQIECBAgQIAAAQIECBAgQIAAgSEFRglfV2FbAbOAWcA8ZOdhMwIECBAgQIAAAQIECBAgQIAAAQKrEBqPco3TDZgfORvPvvZWXHr3elx5+604//J6nHhkLY4tOMTN+fyj3KxV2FYXRYAAAQIECBAgQIAAAQIECBAgQCBngVXI6Ea5xukEzI+ci/Mf7MV+ROzv7cbWB9fj2gc3Y/d+RHxyN25c/aM4IWTuGrSPcrNWYducOw9tI0CAAAECBAgQIECAAAECBAgQILAKGd0o1zh5wPz4Rmzdi9i/uRnPf/lkJUQ9GQ89d6W5fntj9JD5zGbs3tqMU33D6XNx+daAwh54jMWNsh7lZq3CtgPupNUECBAgQIAAAQIECBAgQIAAAQIEFiqwChndKNc4YcD8dJz/KGJ/eyPWHq6GtE/EqZcvxlOPr8WxFELfj/j4uy9WAujqPtXXzfB460J1efl12mYn1nuF0EOF1OXjzff5KDdrFbZdaO/g5AQIECBAgAABAgQIECBAgAABAgQGCKxCRjfKNU4WML/wXtyOm3E+hcjlgPeRb8Wljw4i7u/G62ea646/cj3271+P58vblZ6furo34NZVVxehsoB5lBue+7bVu+w1AQIECBAgQIAAAQIECBAgQIAAgZwEcs/X5t2+iQLmU1f2Im5sxPFSUPzgC+/EjTRlxu5WXHqzNYK5sf5ibMVeXG4Fzh2BdGn/Yw80Ry3vXj3XGVo/sBFbUYTK5UC7uX3fIjNFRsy7sMY9X9/7aCUBAgQIECBAgAABAgQIECBAgACBBQuMm3st636TBcxX9+L2u99qB8GnvrPb+KK/8j2+8e2zrfXNIHjrtXI43Pv5+nY5jE7hcvl1eT8jmJepOMu14zkBAgQIECBAgAABAgQIECBAgACB3ASWKYubxrVMFDA/+t3diI/eiodaI5BPfWcnbtzYiq00PUYcxNYbZw5HNz/cComfKYfDnc9HmiYj41HJvUdnd15v2m4aN3GZjpFbh6E9BAgQIECAAAECBAgQIECAAAECBMoCy5TFTeNaJgqYj/32O7FbnoP54Rfj/I3m3MuXXniiPbI5BaknLt6MuPNePNUxHUZn4JoC5qNTY3Ru0xHepi/wK9/d9Hx7o3He9e3qil4joPscv09bO9oxwXbTuInLdIzqXfOaAAECBAgQIECAAAECBAgQIECAQE4Cy5TFTeNaJguYHzgdL20fRNzajCcfXouXPoiI3ffi2cqX/h1/6q24cf8gtl473RE6V0PasQLm8kjmCzsdAfPWhSI8TtNoCJinUTCzPkZOnYW2ECBAgAABAgQIECBAgAABAgQIEKgKzDofq9vxJwyY1+LYw+txOQ0j3m2GzNXQ+Phzm7H7ScTulfXD6TJ6jPhNo44PQ+EiHO7zmEYwC5iXapqN6hvWawIECBAgQIAAAQIECBAgQIAAAQI5CdQtAJ51eycPmFNY/PCLjZC5/IV/zaC5+cV+u1deHBguH3tgjFHGAualCpdTsftDgAABAgQIECBAgAABAgQIECBAIGeBWQe2dTv+dALmB9ai8QV9NzY6g+Tii/3O9BmFXIxmrobFxfJ+j+ZgFjDn3NtoGwECBAgQIECAAAECBAgQIECAwNIJ1C0AnnV7pxYwF1NhHKmYHlNnVKfSGHl6jBQ8V0NpczDXPnA+Uj8WECBAgAABAgQIECBAgAABAgQIEMhIYNaBbd2OP7WAOQXGDz5+Nh59ovPnxCNDjF7uN0p5ydfVrWBm3d6M+gpNIUCAAAECBAgQIECAAAECBAgQIHBEYNb5WN2OP8WA+Wy8/uHduH2n8+fGt89GdbSy14ehe90KZtbtPfKOtYAAAQIECBAgQIAAAQIECBAgQIBARgKzzsfqdvwpBsxrcez/2Yhr5YD5g414cMlHIE8altetYGbd3oz6Ck0hQIAAAQIECBAgQIAAAQIECBAgcERg1vlY3Y4/3YD5gZPx0JcPp8hY+/xJo5cHBOx1K5hZt/fIO9YCAgQIECBAgAABAgQIECBAgAABAhkJzDofq9vxpxwwH079MOnI3lXZv24FM+v2ZtRXaAoBAgQIECBAgAABAgQIECBAgACBIwKzzsfqdnwB84ARxrMOuutWMLNu75F3rAUECBAgQIAAAQIECBAgQIAAAQIEMhKYdT5Wt+MLmAXMkVPRZtRXaAoBAgQIECBAgAABAgQIECBAgACBIwI5ZWk5tEXALGAWMB/pJiwgQIAAAQIECBAgQIAAAQIECBAg0F0gh1A3pzYImAXMAubufYWlBAgQIECAAAECBAgQIECAAAECBI4I5BTu5tAWAbOAWcB8pJuwgAABAgQIECBAgAABAgQIECBAgEB3gRxC3ZzaIGAWMAuYu/cVlhIgQIAAAQIECBAgQIAAAQIECBA4IpBTuJtDWwTMAmYB85FuwgICBAgQIECAAAECBAgQIECAAAEC3QVyCHVzaoOAWcAsYO7eV1hKgAABAgQIECBAgAABAgQIECBA4IhATuFuDm0RMAuYBcxHugkLCBAgQIAAAQIECBAgQIAAAQIECHQXyCHUzakNAmYBs4C5e19hKQECBAgQIECAAAECBAgQIECAAIEjAjmFuzm0RcAsYBYwH+kmLCBAgAABAgQIECBAgAABAgQIECDQXSCHUDenNgiYBcwC5u59haUECBAgQIAAAQIECBAgQIAAAQIEjgjkFO7m0BYBs4BZwHykm7CAAAECBAgQIECAAAECBAgQIECAQHeBHELdnNogYBYwC5i79xWWEiBAgAABAgQIECBAgAABAgQIEDgikFO4m0NbBMwCZgHzkW7CAgIECBAgQIAAAQIECBAgQIAAAQLdBXIIdXNqg4BZwCxg7t5XWEqAAAECBAgQIECAAAECBAgQIEDgiEBO4W4ObREwC5gFzEe6CQsIECBAgAABAgQIECBAgAABAgQIdBfIIdTNqQ0CZgGzgLl7X2EpAQIECBAgQIAAAQIECBAgQIAAgSMCOYW7ObRFwCxgFjAf6SYsIECAAAECBAgQIECAAAECBAgQINBdIIdQN6c2CJgFzALm7n2FpQQIECBAgAABAgQIECBAgAABAgSOCOQU7ubQlpkEzA8+80Y8/9zpOL7g8PZYDc6fQxHk1IYj71gLCBAgQIAAAQIECBAgQIAAAQIECGQkkFOWlkNbphswP3wmXrp2t327b29vxGMPr0Udgt5FtTGHIsipDe3i8YQAAQIECBAgQIAAAQIECBAgQIBAhgI5ZWk5tGV6AfPDL8b5Dw8i7u3E6888EQ8+cyW27kXE7mY8KWTuGbLnUAQ5tSHDPkOTCBAgQIAAAQIECBAgQIAAAQIECLQFcsrScmjLlALmk/HkO3sR93di/fHSiOXHN2LrfsT++2+MMV3GRmy1b9vRJ7tXz7VC2/7bNffcifVMp8vIoQhyasPRO20JAQIECBAgQIAAAQIECBAgQIAAgXwEcsrScmjLdALm334nduNufP+lJ+KxN7bi4727cXtvN77/xovx4EtbcTvuxpUXSsFzl7B3fbtSJNsbh6N+L+xE3NqMU132O/bARmz1XJfOmQJoAXMOxTZMGypV4CUBAgQIECBAgAABAgQIECBAgACBrASGybhWaZupBMzPbh5EfPhWPPTCe3E7DuLjd6/E+as3Yz8O4vvfOB3nP4zY/+DiEKOYu4fBp67uxeGI5WpQLWBepoLNqrfQGAIECBAgQIAAAQIECBAgQIAAAQIVgWXK4qZxLVMImNfjyl7E1hsnIwXBKWh+sDHS+IlGsJyC4eNv7ETc24pnu45ALgfG5YD5XFy+Vbl77ZflEcmmyJhGIeRyjPYt9oQAAQIECBAgQIAAAQIECBAgQIBAhgK55Gi5tGMKAXMKePfi8pm1OPaNrdiPvbh2YT2evHC9MW1GY2qMM5uxO9Q0FdWAuXXcjmC6vE1rCgxTZEQuBTVpOzLsMzSJAAECBAgQIECAAAECBAgQIECAQFtg0vxr2fafMGB+Op59dy8i9uLSMynsPRlPfnsndu9HxP29uPbGi81pMZ5JczRH7G9vxImOsLg8erkVFreD6DSCuQiY0/Ni1LKAedmKsHw97XeqJwQIECBAgAABAgQIECBAgAABAgQyFChnWZ7fjYkC5uMvX4/9+ztx/ssnD7+Qr0eAfPypK3HjfsSNi6f7bFsOj0cImAcWWhFOVwPtxb9WhHc7Rl8PvJU2IECAAAECBAgQIECAAAECBAgQILBAAXleZ543UcD8/PsHcfud9T6BcWeA2/gywO2NPtuPGTCbIqMjpK1zkS+wb3BqAgQIECBAgAABAgQIECBAgAABAgMF6py9zaLtEwXM69sR6Uv8jvUYtVxd3vgSwIEBc+se3tqJrWKKjDSHcztELofQrWk12us6A+3m+avbd9tmcctmcVPrfMyB72AbECBAgAABAgQIECBAgAABAgQIEFigQJ2zt1m0faKA+dHv7Ebcei+efHgtTn1nJ7a+u96cc7kdOJ+O5zf34uO3z8Wxh9fjyq2Ij79ztmsgncLqxp8jAXSaKqO1rmuQvBFbXZcXobGAeRaFM6tjtu60BwIECBAgQIAAAQIECBAgQIAAAQJZCswqF6vrcScKmFNo3Ah/93abX+wXB3Hj6ltx/s3Wz9WbsZ/K4P5e7KbvAtzdbITR1ZHNPV+nkctp/yJ0vrDTKKrOUdMpQB70xxzMdSnQQXfSegIECBAgQIAAAQIECBAgQIAAAQKLFKhLzjavdk4WMKeRyg+fieff3omPf/xenH/zvfh4727cvh8Rezfj2gdb8frLb8Sla9fjyne+FWsPF6OKBz22Ri33GJncOTWHEczzKpZ5nGeRnYNzEyBAgAABAgQIECBAgAABAgQIEBgkMI+MrE7nmDxgbk+HsRbHnkkjjnfiWpruYvt6bMVeXH5mUJi82uvrVCzzaOugN7D1BAgQIECAAAECBAgQIECAAAECBBYpMI+MrE7nmG7A3JjSYie2GgHzTjNgPrPaAXLP6T9awXydimUebV1k5+DcBAgQIECAAAECBAgQIECAAAECBAYJzCMjq9M5phswP7wer1/diEuNgPmdWL96ZbQ5l8ujoVfkeZ2KZR5tHfQGtp4AAQIECBAgQIAAAQIECBAgQIDAIgXmkZHV6RzTDZhbofBDz12Ml547HYNG71q/FnUqlnm0dZGdg3MTIECAAAECBAgQIECAAAECBAgQGCQwj4ysTueYScAsOB5+WpA6Fcs82jroDWw9AQIECBAgQIAAAQIECBAgQIAAgUUKzCMjq9M5BMwLnoqjTsUyj7YusnNwbgIECBAgQIAAAQIECBAgQIAAAQKDBOaRkdXpHAJmAXNW03QMegNbT4AAAQIECBAgQIAAAQIECBAgQGCRAnUKf+fRVgGzgFnAvMgeybkJECBAgAABAgQIECBAgAABAgRqJTCP0LZO5xAwC5gFzLXqwjSWAAECBAgQIECAAAECBAgQIEBgkQJ1Cn/n0VYBs4BZwLzIHsm5CRAgQIAAAQIECBAgQIAAAQIEaiUwj9C2TucQMAuYBcy16sI0lgABAgQIECBAgAABAgQIECBAYJECdQp/59FWAbOAWcC8yB7JuQkQIECAAAECBAgQIECAAAECBGolMI/Qtk7nEDALmAXMterCNJYAAQIECBAgQIAAAQIECBAgQGCRAnUKf+fRVgGzgFnAvMgeybkJECBAgAABAgQIECBAgAABAgRqJTCP0LZO5xAwC5gFzLXqwjSWAAECBAgQIECAAAECBAgQIEBgkQJ1Cn/n0VYBs4BZwLzIHsm5CRAgQIAAAQIECBAgQIAAAQIEaiUwj9C2TucQMAuYBcy16sI0lgABAgQIECBAgAABAgQIECBAYJECdQp/59FWAbOAWcC8yB7JuQkQIECAAAECBAgQIECAAAECBGolMI/Qtk7nEDALmAXMterCNJYAAQIECBAgQIAAAQIECBAgQGCRAnUKf+fRVgGzgFnAvMgeybkJECBAgAABAgQIECBAgAABAgRqJTCP0LZO5xAwC5gFzLXqwjSWAAECBAgQIECAAAECBAgQIEBgkQJ1Cn/n0VYBs4BZwLzIHsm5CRAgQIAAAQIECBAgQIAAAQIEaiUwj9C2TucQMAuYBcy16sI0lgABAgQIECBAgAABAgQIECBAYJECdQp/59FWAbOAWcC8yB7JuQkQIECAAAECBAgQIECAAAECBGolMI/Qtk7nEDALmAXMterCNJYAAQIECBAgQIAAAQIECBAgQGCRAnUKf+fRVgGzgFnAvMgeybkJECBAgAABAgQIECBAgAABAgRqJTCP0LZO5xAwC5gFzLXqwjSWAAECBAgQIECAAAECBAgQIEBgkQJ1Cn/n0VYBs4BZwLzIHsm5CRAgQIAAAQIECBAgQIAAAQIEaiUwj9C2TueYQ8B8Mp68stcskns34/Uza3GsZ6i7EVuxE+ul9aeu7sXu1XN99mkeb317Ly6fWYu0ffc/ncft3YZ+7Zv+ujoVyzza2v3eWUqAAAECBAgQIECAAAECBAgQIEAgD4F5ZGR1OsdsAuZHno4nz56LBxtB8cXYKt37/mHxeAHzsCF0LqFyuR11KpZ5tLVUKp4SIECAAAECBAgQIECAAAECBAgQyE5gHhlZnc4xxYD5ZDz2xlZ8vHdweNN334vnv/xiXPpxseggti6cjbXHnzgyInl9u9im+bh7dbMjmG6vvbUZp0ojnBv7bW8cOV45xM35eZ2KZR5tbd9nTwgQIECAAAECBAgQIECAAAECBAhkKDCPjKxO55hiwHw2Xv/oIPb3duPa1Stx/u3rcfuTVAEHcePKxXj2tbfipZfeiEs3DyI+uR4vlULiwwD46AjmFCBvXWhNTXFmM3ZLAXN55HL5+eHxpj+lxbSPXadimUdbM+wzNIkAAQIECBAgQIAAAQIECBAgQIBAW2AeGVmdzjHFgLka5p6Mx76724S/+U68fmUrrnyYRjenUcxP9xhx3AqYL+y0Q+V+AXM77C2C5ws77Rvd9UmGI53rVCzzaGvX+2YhAQIECBAgQIAAAQIECBAgQIAAgUwE5pGR1ekcEwfMDz13Mc6/+Vbl50p8vzUtxv6dm3HplXfi48Zo5ojdK+txvOvo5bVoT5ORguAUGm9vNJb1GsHcDJhTKN38gr924Fw6fkdAXVrebdtFLKtTscyjrZn0E5pBgAABAgQIECBAgAABAgQIECBAoKvAPDKyOp1j4oD5aCh7Op6/dreBv//j63H56kZzzuTHvxUv/f6LPcLlc3H5VpoKozRFxplzsX51L6IcHhcjlYugOL1unEnAXKei69fWru9aCwkQIECAAAECBAgQIECAAAECBAhkItAv21rFdWMGzGfj2SOjllujmL+7GddaM2PE/b249ua5eLAIhAc+lgLmxrbpdfrTCpArAXNzdHIKpwXMy1K8mfQTmkGAAAECBAgQIECAAAECBAgQIECgq8Cy5HDTuo4xA+bqfMut1w//UXz/TsTtaxvx1MvvxFYagJz+3LseL32hxz4doXNnwJy+uC8a8ya3lrcD5vJ2AuZpFUMOx2lVjAcCBAgQIECAAAECBAgQIECAAAECWQrkkKHl1IbpBcyPnI31D9LUGAdx7eWTrS/xezEup9HM93fGCJibo5fb8y+3RzTvxHo7aE6htYA5p4KatC1Z9hoaRYAAAQIECBAgQIAAAQIECBAgQKAlMGn+tWz7TyFgfiJOvXk9bre+xO/2O3/Unmf5xMWbDfYbfSkD0AAAIABJREFUF59uBc6DRjEfjkxufOFfY/RyeZ9WmHx1pzWyeVDA3D98Pjp/dPlc83m+bAU16fXoqQgQIECAAAECBAgQIECAAAECBAjkLDBp/rVs+08WMH9lI64V02DsXY/zzzxxGCR/YSO27kfEj9+Jxzqmwege3DYC5VQ5KVS+sBNxa7P55YCVfRvTZhRzMjfWHQ2Rm9sUZbgT65Vj5BAsF21YtoKa9HqKu+aRAAECBAgQIECAAAECBAgQIECAQI4Ck+Zfy7b/RAHzQ69dj9t3duP73b7I78w7sXt/Ly6d6R4oFwHrqj8uW0FNej05dhraRIAAAQIECBAgQIAAAQIECBAgQKAQmDT/Wrb9JwqYVz0cnsb1L1tBTXo9xRvVIwECBAgQIECAAAECBAgQIECAAIEcBSbNv5ZtfwHzgqfPWLaCmvR6cuw0tIkAAQIECBAgQIAAAQIECBAgQIBAITBp/rVs+wuYBcyRU1EXb1SPBAgQIECAAAECBAgQIECAAAECBHIUyClLy6EtAmYBs4A5x55KmwgQIECAAAECBAgQIECAAAECBLIUyCHUzakNAmYBs4A5y65KowgQIECAAAECBAgQIECAAAECBHIUyCnczaEtAmYBs4A5x55KmwgQIECAAAECBAgQIECAAAECBLIUyCHUzakNAmYBs4A5y65KowgQIECAAAECBAgQIECAAAECBHIUyCnczaEtAmYBs4A5x55KmwgQIECAAAECBAgQIECAAAECBLIUyCHUzakNAmYBs4A5y65KowgQIECAAAECBAgQIECAAAECBHIUyCnczaEtAmYBs4A5x55KmwgQIECAAAECBAgQIECAAAECBLIUyCHUzakNAmYBs4A5y65KowgQIECAAAECBAgQIECAAAECBHIUyCnczaEtAmYBs4A5x55KmwgQIECAAAECBAgQIECAAAECBLIUyCHUzakNAmYBs4A5y65KowgQIECAAAECBAgQIECAAAECBHIUyCnczaEtAmYBs4A5x55KmwgQIECAAAECBAgQIECAAAECBLIUyCHUzakNAmYBs4A5y65KowgQIECAAAECBAgQIECAAAECBHIUyCnczaEtAmYBs4A5x55KmwgQIECAAAECBAgQIECAAAECBLIUyCHUzakNAmYBs4A5y65KowgQIECAAAECBAgQIECAAAECBHIUyCnczaEtAmYBs4A5x55KmwgQIECAAAECBAgQIECAAAECBLIUyCHUzakNAmYBs4A5y65KowgQIECAAAECBAgQIECAAAECBHIUyCnczaEtAmYBs4A5x55KmwgQIECAAAECBAgQIECAAAECBLIUyCHUzakNAmYBs4A5y65KowgQIECAAAECBAgQIECAAAECBHIUyCnczaEtAmYBs4A5x55KmwgQIECAAAECBAgQIECAAAECBLIUyCHUzakNAmYBs4A5y65KowgQIECAAAECBAgQIECAAAECBHIUyCnczaEtAmYBs4A5x55KmwgQIECAAAECBAgQIECAAAECBLIUyCHUzakNAmYBs4A5y65KowgQIECAAAECBAgQIECAAAECBHIUyCnczaEtUwyYT8ZDz70R599+L659cD2uvftOnH95PR56eC2OLTjEzfn8ORRBTm3IsdPQJgIECBAgQIAAAQIECBAgQIAAAQKFQE5ZWg5tmUrA/OAL78SNOwVx5fGTu3Hj6h/FCSFz16A9hyLIqQ2V6vGSAAECBAgQIECAAAECBAgQIECAQFYCOWVpObRl4oD5xIWd2E+3+N7NuPzyi6URyyfjod9+Iy59eLdRAPvbG7HWbzTzhZ3YvXquEcKeurp3pGi2LhyOhF7fjmi8PrMZu9sbXYPbNGo5HWf36mZsxV5cPnO4f04jmnMogpzacOTGW0CAAAECBAgQIECAAAECBAgQIEAgI4GcsrQc2jJRwHz8uc3YjYj9D9+KxxrhcWuajFfW46H2iOWT8djFm40Qeved9TjeXl4NfM/F5VvN4DgFw90C5SJYLh6LEDlubcapLsdtBswptN6IrdiJ9S7bLDpszqEIcmpDRn2FphAgQIAAAQIECBAgQIAAAQIECBA4IpBTlpZDWyYImF+MSyldvvVePJnC5YdfjPM3DprgRwLfk/HsZhrJvBeXfrsaLJdfb8TWrc1YbwXMRdBcBMrVxyIcXt/uPkL5MGAunyOv5zkUQU5tOPKOtYAAAQIECBAgQIAAAQIECBAgQIBARgI5ZWk5tGX8gDlNTxERNy6ejmMPFAHy3dh681w82G2k8BfeihsRcfvdb3Wd0qIcEhfBcvFYDZaL10XA3Hi8sDO4zPpMp9FxrG7tn9GyHIogpzYMvom2IECAAAECBAgQIECAAAECBAgQILA4gZyytBzaMnbA/NDFmxFxM85/IY1eTlNQRHsO5e5h7ek4/1FE/PideLRbWNsIiJvTWBTBcvFYBMqdj80pNVIpFXM3V8+b9u+1rrrtol7nUAQ5tWFxXYMzEyBAgAABAgQIECBAgAABAgQIEBgskFOWlkNbxg6YU3gbxbzGT1yMKx9cj9df6D/9RAqIe82XnALeIhAuguXisTNYXovidSMULn054JGQuN+6biH3ApblUAQ5tWHwW9gWBAgQIECAAAECBAgQIECAAAECBBYnkFOWlkNbxg6YH/1umiBjJ9YbX+7XP1huBr8nYz3NkXFkfuaj+w4KlrsGzK0pO8qltbW9E5HhtBjlIDyHIsipDeX75zkBAgQIECBAgAABAgQIECBAgACB3ARyytJyaMvYAfOxl7ZiPw7i2isnu86pXA5RG88fvhjX7kfsv/9G7+3TNBnbG42RzFsX0hQYzS/vKwLl6mPjuNVRyq1jNNal0FnAHDkU2rBtyK3D0B4CBAgQIECAAAECBAgQIECAAAECZYFhc65V2W78gPmBb8WVOxHx0VtxYoipJU405my+G1f6TKNRBMjNcDrN69wMmJuvD6fG6NiuCJgvbMblM2txrBwwP5CO0ZzX+VgKm4cYPV2ca16Pq1Jow15n+c3qOQECBAgQIECAAAECBAgQIECAAIHcBIbNuVZluwkC5rV46LWd2G98yd56HO8TMh9/bjPShBr7Nzb6hNGHI5ZTuJtC5N2rm0dC5mLd1oXW1BopYN7eid0iSO4ImEvHzHQ086oU2rDXmVuHoT0ECBAgQIAAAQIECBAgQIAAAQIEygLD5lyrst1EAfOxB07Gk40v+4u4vf1WPPn5ynQZD5+OJ9/cidvpDtzbifXHj8633B4pXBphnMLl9tzJaXmPkcxp3zRfc5TXp4C5+JOmxygC52Kkc58gvN2WOW6zKoU27HUWt84jAQIECBAgQIAAAQIECBAgQIAAgRwFhs25VmW7CQPmFBifjMfeuB63P2ne7v07e3Hjg+txY/du7LeW3d6721i5u/lHvUcwtwLg5sjlc53zNLdGHzeC58aRWtNetEY6N0Yzt4Plzmk1ihHPabf2qOc5BsiDQutVKbRhr7NZRf5LgAABAgQIECBAgAABAgQIECBAIE+BYXOuVdluCgFza1TyI2fj2Tc34/s3duP2nbtxe/dmXHv3Sjz7lScaIfST391tTqfRL2TOKPgdFAxPa/2qFNqw15lnt6FVBAgQIECAAAECBAgQIECAAAECBJoCw+Zcq7Ld9ALmgeHwyWiGzAdx7eUUOveZLmOF1q1KoQ17nToqAgQIECBAgAABAgQIECBAgAABAjkLDJtzrcp2cwyYW9NpPPNi3y8EXLXgeVUKbdjrzLnz0DYCBAgQIECAAAECBAgQIECAAAECw+Zcq7LdnANmo5arAfqqFNqw16mLIkCAAAECBAgQIECAAAECBAgQIJCzwLA516psJ2Be8HQcq1Jow15nzp2HthEgQIAAAQIECBAgQIAAAQIECBAYNudale0EzALmyKnYdVEECBAgQIAAAQIECBAgQIAAAQIEchbIKUvLoS0CZgGzgDnnHkvbCBAgQIAAAQIECBAgQIAAAQIEshLIIdTNqQ0CZgGzgDmrLkpjCBAgQIAAAQIECBAgQIAAAQIEchbIKdzNoS0CZgGzgDnnHkvbCBAgQIAAAQIECBAgQIAAAQIEshLIIdTNqQ0CZgGzgDmrLkpjCBAgQIAAAQIECBAgQIAAAQIEchbIKdzNoS0CZgGzgDnnHkvbCBAgQIAAAQIECBAgQIAAAQIEshLIIdTNqQ0CZgGzgDmrLkpjCBAgQIAAAQIECBAgQIAAAQIEchbIKdzNoS0CZgGzgDnnHkvbCBAgQIAAAQIECBAgQIAAAQIEshLIIdTNqQ0CZgGzgDmrLkpjCBAgQIAAAQIECBAgQIAAAQIEchbIKdzNoS0CZgGzgDnnHkvbCBAgQIAAAQIECBAgQIAAAQIEshLIIdTNqQ0CZgGzgDmrLkpjCBAgQIAAAQIECBAgQIAAAQIEchbIKdzNoS0CZgGzgDnnHkvbCBAgQIAAAQIECBAgQIAAAQIEshLIIdTNqQ0CZgGzgDmrLkpjCBAgQIAAAQIECBAgQIAAAQIEchbIKdzNoS0DA+Z/8K++Gf/Lv/tZfPqL4WcEg2SW7I4NCLBzKIKc2pBz56FtBAgQIECAAAECBAgQIECAAAECBHLK0nJoy8CAWbg8frCe7ATMd0caIa2LIkCAAAECBAgQIECAAAECBAgQIJCzQA6hbk5tGBgwG7k8fsCc7ATMAuacO0RtI0CAAAECBAgQIECAAAECBAgQGE0gp3A3h7YImEeY9mKcsF3ALGAerYuyNQECBAgQIECAAAECBAgQIECAQM4COYS6ObVBwCxgHmkKi1kXb86dh7YRIECAAAECBAgQIECAAAECBAgQmHU+VrfjC5gFzAJm/SIBAgQIECBAgAABAgQIECBAgACBIQXqFgDPur0CZgGzgHnIzsNmBAgQIECAAAECBAgQIECAAAECBGYd2Nbt+AJmAbOAWb9IgAABAgQIECBAgAABAgQIECBAYEiBugXAs26vgFnALGAesvOwGQECBAgQIECAAAECBAgQIECAAIFZB7Z1O76AWcAsYNYvEiBAgAABAgQIECBAgAABAgQIEBhSoG4B8KzbK2AWMAuYh+w8bEaAAAECBAgQIECAAAECBAgQIEBg1oFt3Y4vYBYwC5j1iwQIECBAgAABAgQIECBAgAABAgSGFKhbADzr9uYTML8W8dPSTdy/E/HmH0d8etQA+Pcirv7s8EA/vRHxm6MeY4rbH3tgLfr9zPoG1+34h3fOMwIECBAgQIAAAQIECBAgQIAAAQL5CdQtb5t1e7MLmK//fxGf+/2IN1PafBDx1Ihh78s/joifRTz7asRjf9YMra+/M0ZQPeJ5ewXh/cLltG7WN7hux8+vy9AiAgQIECBAgAABAgQIECBAgAABAocCdcvbZt3e7ALmv/6LVhj8F82btvHaaOHwX0fET98/3GcjjWb++PB1ryB4VssFzHdHCtEP36qeESBAgAABAgQIECBAgAABAgQIEMhPYNaBbd2OP1HA/G++F/HTg9ZNPojYvBrx2crI3yf/y+BtGuFua4qMrgHz0xEbf9s6z37Ea69F/Po7zddfT+d7u/n85Rci+gXMaV2aemM/bb4f8eILzeD5xRuHx/767003jBYwC5hb1eWBAAECBAgQIECAAAECBAgQIEBgCQTqFgDPur1jB8z/ZjMifhHx9p81p7T44l9E/PQXEfs3I/7N0xGffjri5ZvNba7+RXObxpQVv4j4aLNLiNsnYP5cOtd+xLP/MeLNv4nY/zDi0xci9iIijXBurL8T8cUvDhEw34j47O9EbB602vFqcxqNqxsRT91oHbsSkk8yulnALGBegn7TJRAgQIAAAQIECBAgQIAAAQIECLQEZh3Y1u34YwfMb9+LqM5t/I+/EbF5pzkH8l+nqSnuRLz4jc4wuTHyeL/L3Mp9AuZnP2we87EvRnz949aUF083w+S/fjviqR9GxM2IfzxEwFxMn5Gmzmg8//2IjyLir78X8ek/iHjqDzrbO0m4nPYVMAuY9b4ECBAgQIAAAQIECBAgQIAAAQLLI1C3AHjW7R07YE7TTXSbH/kf/0EzsE0l8+YfdglrW0FyY2qL8kjhPgFzI1ROg5jvReylnxvN46aQOI2GfvmnEXtbzWWDpsg4EjB/MeKL7zcLPIXMKaSeNFQu7y9gFjAvT/fpSggQIECAAAECBAgQIECAAAECBGYd2Nbt+GMHzCncrY5g/uwft6bJ+HHERpoe4yDizT/uDGx/M82d/LOINBq5HMR+elDA3GWfFz+O2P9hxNt3Ioq5m8cJmFM7nvyvzbmZi+N0tK3a1hFeC5gFzLpdAgQIECBAgAABAgQIECBAgACB5RGoWwA86/aOHTD/+tvNQPb6DyKeuhjx2g+ar3/6g4jfbAWwT/2gWThpm2cvRrzc2iZNa3EkwO0VML8aUZ4iI30hXzGC+bH3mlNjlEdTjxww/07Es9+L+FwaybzVI/weIVCuXpeAWcC8PN2nKyFAgAABAgQIECBAgAABAgQIEJh1YFu3448dMKcg9Tf/NOKv91rTVvxtxJsbR6eYOLERsfm3rW32It780y7hcgpwSwHzZ3+v9QWB9yKe/GLrS/wOIl78nYjXii/5S/v8WTPUTmX9YisEfvnHzZD42VcjGl8qGIcjrVP4vH8j4nOvRlwvlv9x88sC374QcSJ9mWCXkdLV0HiU1wJmAbNulwABAgQIECBAgAABAgQIECBAYHkE6hYAz7q9EwXMowStA7dtBcxFqe3fiXjzQiuMfiHi7b9trbkX8dprreWtL+jrCIV/L+Jq+oLB1p+f3jgcUd0ImH/WCqX3Ir74dPM4aVR0489BxNXv9gjAxxzFLGAWMLeqywMBAgQIECBAgAABAgQIECBAgMASCMw6sK3b8fMJmMcMcAcG16XjVqfPGGXfcbcVMAuYl6DfdAkECBAgQIAAAQIECBAgQIAAAQItgboFwLNur4C5FECPGyL320/ALGDW+xIgQIAAAQIECBAgQIAAAQIECCyPwKwD27odf6UC5n5B8KzWCZgFzMvTfboSAgQIECBAgAABAgQIECBAgACBugXAs26vgNkI5ph1kY1yfF0UAQIECBAgQIAAAQIECBAgQIAAgZwFRsm6VmFbAbOAWcCcc4+lbQQIECBAgAABAgQIECBAgAABAlkJrEJoPMo1CpgFzALmrLoojSFAgAABAgQIECBAgAABAgQIEMhZYJTwdRW2FTALmAXMOfdY2kaAAAECBAgQIECAAAECBAgQIJCVwCqExqNco4BZwCxgzqqL0hgCBAgQIECAAAECBAgQIECAAIGcBUYJX1dhWwGzgFnAnHOPpW0ECBAgQIAAAQIECBAgQIAAAQJZCaxCaDzKNQqYBcwC5qy6KI0hQIAAAQIECBAgQIAAAQIECBDIWWCU8HUVthUwC5gFzDn3WNpGgAABAgQIECBAgAABAgQIECCQlcAqhMajXOPAgPl/+Xc/i0/POIRd1uMnu2MPrPX9GeVmrcK2WfUWGkOAAAECBAgQIECAAAECBAgQIECgIrAKGd0o1zgwYP4H/+qbIWSOkUP2ZJbsBMx3RxohXXm/ekmAAAECBAgQIECAAAECBAgQIEAgK4FRwtdV2HZgwDwoILW+/wjlQT6rUGSjXGNWvYXGECBAgAABAgQIECBAgAABAgQIEKgIjJJ1rcK2AuYBU1gMCognXb8KRTbKNVber14SIECAAAECBAgQIECAAAECBAgQyEpglKxrFbYVMAuYR5rCYtZviqx6C40hQIAAAQIECBAgQIAAAQIECBAgUBGYdT5Wt+MLmAXMAuZKJ+ElAQIECBAgQIAAAQIECBAgQIAAgV4CdQuAZ91eAbOAWcDcq7ewnAABAgQIECBAgAABAgQIECBAgEBFYNaBbd2OL2AWMAuYK52ElwQIECBAgAABAgQIECBAgAABAgR6CdQtAJ51ewXMAmYBc6/ewnICBAgQIECAAAECBAgQIECAAAECFYFZB7Z1O76AWcAsYK50El4SIECAAAECBAgQIECAAAECBAgQ6CVQtwB41u0VMAuYBcy9egvLCRAgQIAAAQIECBAgQIAAAQIECFQEZh3Y1u34AmYBs4C50kl4SYAAAQIECBAgQIAAAQIECBAgQKCXQN0C4Fm3d2DA/H89/kz4Gd/g2IAAe9Y3uG7H7/XGtZwAAQIECBAgQIAAAQIECBAgQIBADgJ1y9tm3d6BAfOggNT6tZjEYNY3uG7Hz6GT0AYCBAgQIECAAAECBAgQIECAAAECvQTqlrfNur0C5gEjjCcJj4fZd9Y3uG7H7/XGtZwAAQIECBAgQIAAAQIECBAgQIBADgJ1y9tm3V4Bs4DZHMw59EzaQIAAAQIECBAgQIAAAQIECBAgUAuBWQe2dTu+gFnALGCuRdelkQQIECBAgAABAgQIECBAgAABAjkI1C0AnnV7BcwCZgFzDj2TNhAgQIAAAQIECBAgQIAAAQIECNRCYNaBbd2OL2AWMAuYa9F1aSQBAgQIECBAgAABAgQIECBAgEAOAnULgGfdXgGzgFnAnEPPpA0ECBAgQIAAAQIECBAgQIAAAQK1EJh1YFu34wuYBcwC5lp0XRpJgAABAgQIECBAgAABAgQIECCQg0DdAuBZt1fALGAWMOfQM2kDAQIECBAgQIAAAQIECBAgQIBALQRmHdjW7fgCZgGzgLkWXZdGEiBAgAABAgQIECBAgAABAgQI5CBQtwB41u0VMAuYBcw59EzaQIAAAQIECBAgQIAAAQIECBAgUAuBWQe2dTu+gFnALGCuRdelkQQIECBAgAABAgQIECBAgAABAjkI1C0AnnV7BcwCZgFzDj2TNhAgQIAAAQIECBAgQIAAAQIECNRCYNaBbd2OL2AWMAuYa9F1aSQBAgQIECBAgAABAgQIECBAgEAOAnULgGfdXgGzgFnAnEPPpA0ECBAgQIAAAQIECBAgQIAAAQK1EJh1YFu34wuYBcwC5lp0XRpJgAABAgQIECBAgAABAgQIECCQg0DdAuBZt1fALGAWMOfQM2kDAQIECBAgQIAAAQIECBAgQIBALQRmHdjW7fgCZgGzgLkWXZdGEiBAgAABAgQIECBAgAABAgQI5CBQtwB41u0VMAuYBcw59EzaQIAAAQIECBAgQIAAAQIECBAgUAuBWQe2dTv+mAHzyXjyym7sV2/5J3fj2oWn49gDg9avxbEFB7u5nL9uBTPr9lZLymsCBAgQIECAAAECBAgQIECAAAECOQnMOh+r2/HHDJgvxlYcxPdfORuPPnH4c+rt3Yhbm3HqgUHrqwHzRmwNWSW7V8+Vwum0306sDwqrz2zE+pnqOfN4XbeCmXV7hywDmxEgQIAAAQIECBAgQIAAAQIECBBYiMCs87G6HX/MgDkFu3txuRraXthpBcyD1g8R7l7Yic4wuds+5YD5XFy+1bumBh+r2/Fnv6xuBTPr9va+g9YQIECAAAECBAgQIECAAAECBAgQWLzArPOxuh0/k4A5BcVD/tneiGMPdNl+ezMu3+oSeg8a3bzg9XUrmFm3d8gqsBkBAgQIECBAgAABAgQIECBAgACBhQjMOh+r2/EzCZg7Rwqfuro3xOjltTh2ZjN221NkpBHMAua6FWC1vQvpFZyUAAECBAgQIECAAAECBAgQIECAwJAC1Txr1V/PKGB+I67dP4iti+c65mhOXwzYnKO5M1Be3x7y7hWbNUYxr0UKoqMjYC42qDw25oXuPKcv+bsbORZ/5c55SYAAAQIECBAgQIAAAQIECBAgQCArgRwztUW2aUYB81qceGUrdu/cjdvln72bcem5k6Uv6auGvhux1TMMLs+3nPYrz7mcRi63RjBf3YloBdCNEDmNcu55zOr55/96kTc/x3Nn1VtoDAECBAgQIECAAAECBAgQIECAAIGKQI6Z2iLbNLOAedQRws3RyJW7deTlTqwXcyY3guO95hQZjec7sdWYIqMzpB56uo3iuHN+XOTNz/HcR265BQQIECBAgAABAgQIECBAgAABAgQyEsgxU1tkm2YUMJ+MNB3GfvXGf3I3rl14ujKCuTkSeffqueacyj1HG3eOYE7TamxdKC9Lx2kG0M11aTRyef38RycPE7Iv8ubneO5qyXhNgAABAgQIECBAgAABAgQIECBAICeBHDO1RbZpRgHzxdiKg/j+K2c75mA+9Xb3OZjbQWzjS/v6lUsxgvlcXN7ejFMdAXIpTG4cZye2tmO4Lwuc86jl9vU+sJblPMiLLMh+d986AgQIECBAgAABAgQIECBAgAABAosWWGR2luO5ZxQwp7A3zYtcGTV8Yafrl/y1A9fGVBcpOK7s13hdCpDb60vL0rFLcy83vjiw52jobsdfzLIci2KRbVp0B+H8BAgQIECAAAECBAgQIECAAAECBPoJLDI7y/Hc+QXM/e5eFCOYizC4CJhLgXZrFHRjyo0UOkeaSqPYPr/HHItikW3qe/utJECAAAECBAgQIECAAAECBAgQILBggUVmZzmeO7+Aueeo4yJMLofEzWWXr+41psJofFHgkf1Lczy3Rz6Xj7HY5zkWxSLbtOD+wekJECBAgAABAgQIECBAgAABAgQI9BVYZHaW47nHDJjfiGv3D2Lr4rmOOZbTF/tFI+AdtH6xoW57So4MAucci2KRber77rWSAAECBAgQIECAAAECBAgQIECAwIIFFpmd5XjuMQPmtTjxylbs3rkbt8s/ezfj0nMnIwW4g9bnFPIusi05FsUi27Tg/sHpCRAgQIAAAQIECBAgQIAAAQIECPQVWGR2luO5xw6YFxnKLtO5cyyKRbap77vXSgIECBAgQIAAAQIECBAgQIAAAQILFlhkdpbjuQXMC54mI8eiWGSbFtw/OD0BAgQIECBAgAABAgQIECBAgACBvgKLzM5yPLeAWcAcORVm33evlQQIECBAgAABAgTkV+zKAAAgAElEQVQIECBAgAABAgQWLJBTlpZDWwTMAmYB84I7JacnQIAAAQIECBAgQIAAAQIECBCoj0AOoW5ObRAwC5gFzPXpv7SUAAECBAgQIECAAAECBAgQIEBgwQI5hbs5tEXALGAWMC+4U3J6AgQIECBAgAABAgQIECBAgACB+gjkEOrm1AYBs4BZwFyf/ktLCRAgQIAAAQIECBAgQIAAAQIEFiyQU7ibQ1sEzAJmAfOCOyWnJ0CAAAECBAgQIECAAAECBAgQqI9ADqFuTm0QMAuYBcz16b+0lAABAgQIECBAgAABAgQIECBAYMECOYW7ObRFwCxgFjAvuFNyegIECBAgQIAAAQIECBAgQIAAgfoI5BDq5tQGAbOAWcBcn/5LSwkQIECAAAECBAgQIECAAAECBBYskFO4m0NbBMwCZgHzgjslpydAgAABAgQIECBAgAABAgQIEKiPQA6hbk5tEDALmAXM9em/tJQAAQIECBAgQIAAAQIECBAgQGDBAjmFuzm0RcAsYBYwL7hTcnoCBAgQIECAAAECBAgQIECAAIH6COQQ6ubUBgGzgFnAXJ/+S0sJECBAgAABAgQIECBAgAABAgQWLJBTuJtDWwTMAmYB84I7JacnQIAAAQIECBAgQIAAAQIECBCoj0AOoW5ObRAwC5gFzPXpv7SUAAECBAgQIECAAAECBAgQIEBgwQI5hbs5tEXALGAWMC+4U3J6AgQIECBAgAABAgQIECBAgACB+gjkEOrm1AYBs4BZwFyf/ktLCRAgQIAAAQIECBAgQIAAAQIEFiyQU7ibQ1sEzAJmAfOCOyWnJ0CAAAECBAgQIECAAAECBAgQqI9ADqFuTm0QMAuYBcz16b+0lAABAgQIECBAgAABAgQIECBAYMECOYW7ObRFwCxgFjAvuFNyegIECBAgQIAAAQIECBAgQIAAgfoI5BDq5tQGAbOAWcBcn/5LSwkQIECAAAECBAgQIECAAAECBBYskFO4m0NbBMwCZgHzgjslpydAgAABAgQIECBAgAABAgQIEKiPQA6hbk5tmCxgfvhMPPWd9+LaB9eH/rnynW/F2sNrcWzBwW4u58+pGHJoS326Ei0lQIAAAQIECBAgQIAAAQIECBBYRYEcMrSc2jBBwHw6Xto+iPjkbnx8Y8iA+cZu3P4kYn/7YjwkYG6E7DkVQw5tWcVOyTUTIECAAAECBAgQIECAAAECBAjURyCHDC2nNkwQMG/EVkRsvXFypNHIx9/YiYidWB8mYL4wzLbn4vKtbsdLy/fi8pm8R0vnVAw5tKU+XYmWEiBAgAABAgQIECBAgAABAgQIrKJADhlaTm2YIGA+F+evbcX5UQPcoULjw1D41NW9iO2NPiF2KWBOx25vWwmYO9YdHn/RU2XkVAw5tGUVOyXXTIAAAQIECBAgQIAAAQIECBAgUB+BHDK0nNowZsD8dDz12ltx/s3Wz++/GMcbI5Kfjpeu9pgu4+rFOJG26RowpzB4xCK6tRmnGucsBcwPrEUKpHevnotjD5QD5jTautso58UHzTkVQw5tGbEKbE6AAAECBAgQIECAAAECBAgQIEBgrgI5ZGg5tWHMgPlcvP7R3bh9p/Vz4614bKKAuRT09hlpnMLjrQvFtl1C6UboXATLxeNarG/nO1VGTsWQQ1vm2hs4GQECBAgQIECAAAECBAgQIECAAIERBXLI0HJqw5gBcwp5z8b62xvxaCNYLkLfIR67jmAu77cRW+3RyeXlKTDuNgq51+jkw4B50dNg9Dt/TsWQQ1tGfD/bnAABAgQIECBAgAABAgQIECBAgMBcBXLI0HJqwwQBc/dg9/jnz8SjT5w9+vP4E815lAcGzGnEcZRGKrdC5h4jmxtzNMde7N5K+zS/eLBXRTWnziiH1ot/nlMx5NCWXvfOcgIECBAgQIAAAQIECBAgQIAAAQI5COSQoeXUhikHzGnUcI/b/Mn1eKnnHMyVoPfMZux2zJmcguNu01yk0c47sXVrLy5f3Ynouk3z2IdzM1fONeoI7Clvn1Mx5NCWHtVjMQECBAgQIECAAAECBAgQIECAAIEsBHLI0HJqw5QD5iHC2yFGMKcpJRojk7c3Wl/W12VEc2ubrQvlqTP6BNwRrS//G6KNUw6RTZFxN4Yt+ix6CY0gQIAAAQIECBAgQIAAAQIECBAg0ENg2JxrVbYbM2A+GQ99+WyceuZccyqML5+O48OGskMGzO2QuWcwfC4ub2/GqQfKAXPv8NgI5uFD3kUWf4/3rcUECBAgQIAAAQIECBAgQIAAAQIEshBYZHaW47nHDJjXO6fCuLcVzzYC5rNxfvtu3L7T5efmO3EqbTNswNzYLmJrO0190W/0sYA5x8Iat01Z9BIaQYAAAQIECBAgQIAAAQIECBAgQKCHwLi517LuN2bAnEYKn431dzfjpcfLo4ZPxmO//1acf7PLz2vfihNDBMzpC/4afxrTYxweu9fyY6URzM0v/Otx5/uG1Ifn6TedxSzWLWthjXtdve+eNQQIECBAgAABAgQIECBAgAABAgQWLzBu7rWs+00QMKcv3us+N3LfILbrCObDuZO3LgwIe1sjm+NWmh4jbWsE8zIV5+K7CC0gQIAAAQIECBAgQIAAAQIECBAg0FtgmbK4aVzLBAHzxUbA/PF3no6+gXIjBD4MjU98ZzciduKlyvJRjrFM207jJi7TMXq/da0hQIAAAQIECBAgQIAAAQIECBAgsHiBZcripnEtEwTMJ+PJq3uNO7rfbc7lrssOGtvvXl0f/ksBlzyInsZNXKZjLL6L0AICBAgQIECAAAECBAgQIECAAAECvQWWKYubxrVMEDCnUcknY+0/Xew+53K3eZjffCte+k9nhMul0HwaN3GZjtH7rWsNAQIECBAgQIAAAQIECBAgQIAAgcULLFMWN41rmTBgPpz6YpmmrZjntUzjJi7TMRbfRWgBAQIECBAgQIAAAQIECBAgQIAAgd4Cy5TFTeNaBMyl0cTzDJaLc03jJi7TMXq/da0hQIAAAQIECBAgQIAAAQIECBAgsHiBZcripnEtAmYBc0yjkKZ1jMV3EVpAgAABAgQIECBAgAABAgQIECBAoLfAtHKwZTmOgFnALGDu3V9YQ4AAAQIECBAgQIAAAQIECBAgQKBDYFmC4Wldh4BZwCxg7ugivCBAgAABAgQIECBAgAABAgQIECDQW2BaweyyHEfALGAWMPfuL6whQIAAAQIECBAgQIAAAQIECBAg0CGwLMHwtK5DwCxgFjB3dBFeECBAgAABAgQIECBAgAABAgQIEOgtMK1gdlmOI2AWMAuYe/cX1hAgQIAAAQIECBAgQIAAAQIECBDoEFiWYHha1yFgFjALmDu6CC8IECBAgAABAgQIECBAgAABAgQI9BaYVjC7LMcRMAuYBcy9+wtrCBAgQIAAAQIECBAgQIAAAQIECHQILEswPK3rEDALmAXMHV2EFwQIECBAgAABAgQIECBAgAABAgR6C0wrmF2W4wiYBcwC5t79hTUECBAgQIAAAQIECBAgQIAAAQIEOgSWJRie1nUImAXMAuaOLsILAgQIECBAgAABAgQIECBAgAABAr0FphXMLstxBMwCZgFz7/7CGgIECPz/7N3td5xnfS/6/BVnn3UeXp11Xpy1zlnrnBd79XTvdu8aelrKQ6GYhxIoBArZQFxK1bQECnED7kpNHiBpcHbq7YRNDI0IiUmMTagDDo4TDMYGnNoQOcbGyLb8MJI9siTLMvmddY90S6PRzGhmNJq5xvPxWrMkzdya+5rP/dUF6ztXriFAgAABAgQIECBAgAABAgQWCVwvxXC7XoeCWcGsYF40RfiBAAECBAgQIECAAAECBAgQIECAQG2BdhWz18vzKJgVzArm2vOFRwgQIECAAAECBAgQIECAAAECBAgsErheiuF2vQ4Fs4JZwbxoivADAQIECBAgQIAAAQIECBAgQIAAgdoC7Spmr5fnUTArmBXMtecLjxAgQIAAAQIECBAgQIAAAQIECBBYJHC9FMPteh0KZgWzgnnRFOEHAgQIECBAgAABAgQIECBAgAABArUF2lXMXi/Po2BWMCuYa88XHiFAgAABAgQIECBAgAABAgQIECCwSOB6KYbb9ToUzApmBfOiKcIPBAgQIECAAAECBAgQIECAAAECBGoLtKuYvV6eR8GsYFYw154vPEKAAAECBAgQIECAAAECBAgQIEBgkcD1Ugy363UomBXMCuZFU4QfCBAgQIAAAQIECBAgQIAAAQIECNQWaFcxe708j4JZwaxgrj1feIQAAQIECBAgQIAAAQIECBAgQIDAIoHrpRhu1+tYUcF808P74vC5yRifaOJWGI5nH9sUa7tc7K5J5PztupDXy/Ms+mv1AwECBAgQIECAAAECBAgQIECAAIHEBK6XHq5dr6P1gvneA3E6ZqJw+EBse2Zvw7cdPx2J6ZiMfQ8PRColbzfH0a4Leb08T2LzheEQIECAAAECBAgQIECAAAECBAgQWCRwvfRw7XodrRfM24cjxg7FhqZXAq+PwRMRhf1bqxbMg8cWXa+5H4ZjcP48u2MoIoa2Xx8Fdbsu5PXyPNWuvvsIECBAgAABAgQIECBAgAABAgQIpCJwvfRw7XodXSiYByIrkesWzMd2LyqfS6XzfJmtYG7XxU/xeVKZKIyDAAECBAgQIECAAAECBAgQIECAQDWBFDu1bo6pTQXz/fHg/pEYv5aRz0Th6O64fV3tFcbNFsxrstXSka9iVjB3MzCrfe5qf7TuI0CAAAECBAgQIECAAAECBAgQIJCKwGr3Y732/G0pmDfsK0aMDcWWe++Jm+/eGXtGZiLGjsR9t5aXzOvjplvXl1YmN1swl1Ywz69qVjD3WsiaGW8qE4VxECBAgAABAgQIECBAgAABAgQIEKgm0EzX1Q/HtqVgvu+54/Hso7PlcekD89ZtisFjMxHF4dj20D1x8x2Dse3Y5PyezcsWzJVXbn57jKywVjBfz8GsvPR+JkCAAAECBAgQIECAAAECBAgQIJCSwPXczbXy2tpSMJdK5fkP4ctXLZdtm3FtJgonDsSDd8w+tmzBPL9aefb4DfuLtsi4PBmtXOBe+52UJgtjIUCAAAECBAgQIECAAAECBAgQIFAp0Gt922qPdxUL5rxoXvq12YJ58aplK5hXOxTdfP7KP1g/EyBAgAABAgQIECBAgAABAgQIEEhJoJvdWYrnVjAvWXm9tBCvvkK7PcelGIpujimlycJYCBAgQIAAAQIECBAgQIAAAQIECFQKdLM7S/HcKyuYi0firqYL2vtjx0hEYd/W0gf+VZa3iz/Qb7bEtUVGf2yPkf2B+EeAAAECBAgQIECAAAECBAgQIEAgZYEUS95ujqn1gnndzjh8NSKuTsb4RBO3qZmIa4XYcW/1FcClgnlJgoqxZ1N+vC0yuhmY1T73kkvvDgIECBAgQIAAAQIECBAgQIAAAQIJCax2P9Zrz996wZytXL51a2x54UgcPnq84laI8ZiJwsnK+4/Hwf17474711ddvVy5mrkffu61wKz2eBOaKwyFAAECBAgQIECAAAECBAgQIECAwBKB1e7Heu35V1Yw59tjrHsktjyzN7bN34bidMzE0Avl9+2K++7IVyH7mpfnvRaY1R7vkr9YdxAgQIAAAQIECBAgQIAAAQIECBBISGC1+7Fee/72FMyf3hl7lqxirly9PBTb5re5UDArmKvvK53QXGEoBAgQIECAAAECBAgQIECAAAECBJYI9FoBvNrjbU/BnK9k9rXprT9W+wL32vMv+Yt1BwECBAgQIECAAAECBAgQIECAAIGEBHqtb1vt8SqYu1yKr/YF7rXnT2iuMBQCBAgQIECAAAECBAgQIECAAAECSwR6rW9b7fEqmBXMsdoha+b5l/zFuoMAAQIECBAgQIAAAQIECBAgQIBAQgLNdF39cKyCWcGsYE5ogjIUAgQIECBAgAABAgQIECBAgACBtAX6oTRu5jUqmBXMCua05yyjI0CAAAECBAgQIECAAAECBAgQSEigmfK1H45VMCuYFcwJTVCGQoAAAQIECBAgQIAAAQIECBAgkLZAP5TGzbxGBbOCWcGc9pxldAQIECBAgAABAgQIECBAgAABAgkJNFO+9sOxCmYFs4I5oQnKUAgQIECAAAECBAgQIECAAAECBNIW6IfSuJnXqGBWMCuY056zjI4AAQIECBAgQIAAAQIECBAgQCAhgWbK1344VsGsYFYwJzRBGQoBAgQIECBAgAABAgQIECBAgEDaAv1QGjfzGhXMCmYFc9pzltERIECAAAECBAgQIECAAAECBAgkJNBM+doPxyqYFcwK5oQmKEMhQIAAAQIECBAgQIAAAQIECBBIW6AfSuNmXqOCWcGsYE57zjI6AgQIECBAgAABAgQIECBAgACBhASaKV/74VgFs4JZwZzQBGUoBAgQIECAAAECBAgQIECAAAECaQv0Q2nczGtUMCuYFcxpz1lGR4AAAQIECBAgQIAAAQIECBAgkJBAM+VrPxyrYFYwK5gTmqAMhQABAgQIECBAgAABAgQIECBAIG2BfiiNm3mNCmYFs4I57TnL6AgQIECAAAECBAgQIECAAAECBBISaKZ87YdjFcwKZgVzQhOUoRAgQIAAAQIECBAgQIAAAQIECKQt0A+lcTOvUcGsYFYwpz1nGR0BAgQIECBAgAABAgQIECBAgEBCAs2Ur/1wrIJZwaxgTmiCMhQCBAishsANN9ywGk/rOQkQIECAAAECBAgQINCXAv1QGjfzGhXMCmYFc19OhV40AQIECBAgQIAAAQIECBAgQIBAKwLNlK/9cKyCWcGsYG5lJvE7BAgQIECAAAECBAgQIECAAAECfSnQD6VxM69RwaxgVjD35VToRRMgQIAAAQIECBAgQIAAAQIECLQi0Ez52g/HKpgVzArmVmYSv0OAAAECBAgQIECAAAECBAgQINCXAv1QGjfzGhXMCmYFc19OhV40AQIECBAgQIAAAQIECBAgQIBAKwLNlK/9cGybCub1MfDYgRgqTMb01ZmYnijG0As7Y2DdQKzpcoGb+vn7IWTNvMZW/qj9DgECBAgQIECAAAECBAgQIECAAIFOCTTTdfXDsW0pmDc8V4jpa5Nx+JnBuG3j5rht8+44WIiIwoG479EDcfin++K+O9c3VDYPHoso7N/a0LF5ebxhf7Hp38l/t9tf+yFkzbzGTk0EzkOAAAECBAgQIECAAAECBAgQIECgFYFmuq5+OHblBfOn98aJKMa+hyoK5HWDsW8s4sSuwdgxkl2qYuypPGbJ6ubdMTR2KDbk928frn6Nj+0uK6C3xp6x4Ric+52soK7+rxh7NqW3orofQtbMa6x+7dxLgAABAgQIECBAgAABAgQIECBAIA2BZrqufjh25QXzU8MR5aVwXg7fOBDZyuI4tivW3Lgx7jtQLK1ovr3s8crVwxv2D8+VwLtjKIZjMCuYF5XJA7Gm8r7tw4tWL2cF89D2yiI5K6EVzL0Q6DSmCaMgQIAAAQIECBAgQIAAAQIECBAgUF2gFzq2To5x5QXz48djungk7qpSHN91YHKuYB6INevmSuMqx5WK5k2HojBXJs+XxJVlcva7i+4rW72c3T92KPYomJP60L5mw1z9z9a9BAgQIECAAAECBAgQIECAAAECBNIQaLbvut6PX3nBvG5XHL46E0Pb7y/btmIg1tyxO4auzsThJ2e3zrhl53BM11jpnBXMpdXOeUbyVctZaVztX9njs/s1L6xQni+nFxXZC49Xrpru9s/Xe8CafX3VLrf7CBAgQIAAAQIECBAgQIAAAQIECKQi0Gzfdb0fv/KC+caBuOXJ4zF+bSZOHz4Q257ZG9teGIrTUxHjv9gVt2Tl8XMjMR3ZfsybFpfQi0rgbFuLrbHnWMUezHmZnB9btoK5vJTOPxhQwTxpBXMqs41xECBAgAABAgQIECBAgAABAgQIXHcC13th3OzrW3HBvPbOXXFwbCYiZmK6MBKHjx6Pw6eKMX01Iq4W4/DOR2Lgawfi8LnJiJiMw09WrHTOi+MbB2LwWDH27J9btZwVy2Vl8vxK4yX3Lf5gwKxgrv7PHszNhqMbx1e/du4lQIAAAQIECBAgQIAAAQIECBAgkIZANzqzlM+5ooJ57UOHohARhcO7Y8OtlR+stzFue/xIFK5FFPYPxtpspfPXhqJwrRh7HprdNmO+NM5K5mwP5iwj5SuWl9si48a5fZ3nfjdfxbzoecsK7BTvTzkc3RhbGtOEURAgQIAAAQIECBAgQIAAAQIECBCoLtCNzizlc7ZeMH96V2mP5aGdm0rlca3ydu2ds3sx53s03/5CMeLk3ri5keJ3yWrlig/5ywvoyr2dy34v20Yj5eI55XB0Y2zV/2zdS4AAAQIECBAgQIAAAQIECBAgQCANgW50Zimfs+WC+b6fTsb0sd0NFcU3bx+O6YkjcV9WKm88EKevHo8tNQrm+S0ustK4rCieL7Cr3Zft3TwWMbQ9Xwk9HIPzzz/7WKolc8rh6MbY0pgmjIIAAQIECBAgQIAAAQIECBAgQIBAdYFudGYpn7PFgjkrbWfi4KOV22LU+vnpODg1Gfse2hi3bNwXJ6K8AJ77nbnVyKWSOC+Hq5XJi+6bLY8j5vZXLm2VUeW5ywvo/LkT+ZpyOLoxtup/tu4lQIAAAQIECBAgQIAAAQIECBAgkIZANzqzlM/ZYsE8t/fxulqF8tL7s5XJQ9u3xrMjkzFePBIP1i148+K4TmjGDsUPSs+Zn2tuTLWeNyufK7fSqHVsB+9PORzdGFudK+4hAgQIECBAgAABAgQIECBAgAABAl0X6EZnlvI5V1Awj8SOjZvjtgZvO07ObWHRwfJ2fluNhM+Zcji6MbauzxAGQIAAAQIECBAgQIAAAQIECBAgQKCOQDc6s5TP2WLBPLcSeWIyxhu+FeLZTflqY1/z8jvlcHRjbHX+dj1EgAABAgQIECBAgAABAgQIECBAoOsC3ejMUj5niwWzgjgviFf6NeVwdGNsXZ8hDIAAAQIECBAgQIAAAQIECBAgQIBAHYFudGYpn1PB3OXtM1IORzfGVudv10MECBAgQIAAAQIECBAgQIAAAQIEui7Qjc4s5XMqmBXMkVJAuz5DGAABAgQIECBAgAABAgQIECBAgACBOgIpdWkpjEXBrGBWMNeZMDxEgAABAgQIECBAgAABAgQIECBAoFwghVI3pTEomBXMCubyGcL3BAgQIECAAAECBAgQIECAAAECBOoIpFTupjAWBbOCWcFcZ8LwEAECBAgQIECAAAECBAgQIECAAIFygRRK3ZTGoGBWMCuYy2cI3xMgQIAAAQIECBAgQIAAAQIECBCoI5BSuZvCWBTMCmYFc50Jw0MECBAgQIAAAQIECBAgQIAAAQIEygVSKHVTGoOCWcGsYC6fIXxPgAABAgQIECBAgAABAgQIECBAoI5ASuVuCmNRMCuYFcx1JgwPESBAgAABAgQIECBAgAABAgQIECgXSKHUTWkMCmYFs4K5fIbwPQECBAgQIECAAAECBAgQIECAAIE6AimVuymMRcGsYFYw15kwPESAAAECBAgQIECAAAECBAgQIECgXCCFUjelMSiYFcwK5vIZwvcECBAgQIAAAQIECBAgQIAAAQIE6gikVO6mMBYFs4JZwVxnwvAQAQIECBAgQIAAAQIECBAgQIAAgXKBFErdlMagYFYwK5jLZwjfEyBAgAABAgQIECBAgAABAgQIEKgjkFK5m8JYFMwKZgVznQnDQwQIECBAgAABAgQIECBAgAABAgTKBVIodVMag4JZwaxgLp8hfE+AAAECBAgQIECAAAECBAgQIECgjkBK5W4KY1EwK5gVzHUmDA8RIECAAAECBAgQIECAAAECBAgQKBdIodRNaQwKZgWzgrl8hvA9AQIECBAgQIAAAQIECBAgQIAAgToCKZW7KYxFwaxgVjDXmTA8RIAAAQIECBAgQIAAAQIECBAgQKBcIIVSN6UxKJgVzArm8hnC9wQIECBAgAABAgQIECBAgAABAgTqCKRU7qYwFgWzglnBXGfC8BABAgQIECBAgAABAgQIECBAgACBcoEUSt2UxrBswfyxOx4It9YN1ixTYKcUhhTGUv7H6nsCBAgQIECAAAECBAgQIECAAAECqQmk0KGlNIZlC+blClKPD8RKDFIKQwpjSW3CMB4CBAgQIECAAAECBAgQIECAAAEC5QIpdGgpjUHBvMwK45WUx438bkphSGEs5X+svidAgAABAgQIECBAgAABAgQIECCQmkAKHVpKY1AwK5jtwZzaLGU8BAgQIECAAAECBAgQIECAAAECyQqkVO6mMBYFs4JZwZzsdGVgBAgQIECAAAECBAgQIECAAAECqQmkUOqmNAYFs4JZwZzaLGU8BAgQIECAAAECBAgQIECAAAECyQqkVO6mMBYFs4JZwZzsdGVgBAgQIECAAAECBAgQIECAAAECqQmkUOqmNAYFs4JZwZzaLGU8BAgQIECAAAECBAgQIECAAAECyQqkVO6mMBYFs4JZwZzsdGVgBAgQIECAAAECBAgQIECAAAECqQmkUOqmNAYFs4JZwZzaLGU8BAgQIECAAAECBAgQIECAAAECyQqkVO6mMBYFs4JZwZzsdGVgBAgQIECAAAECBAgQIECAAAECqQmkUOqmNAYFs4JZwZzaLGU8BAgQIECAAAECBAgQIECAAAECyQqkVO6mMBYFs4JZwZzsdGVgBAgQIECAAAECBAgQIECAAAECqQmkUOqmNAYFs4JZwZzaLGU8BAgQIECAAAECBAgQIECAAAECyQqkVO6mMBYFs4JZwZzsdGVgBAgQIECAAAECBAgQIECAAAECqQmkUOqmNAYFs4JZwZzaLGU8BAgQIECAAAECBAgQIECAAAECyQqkVO6mMBYFs4JZwZzsdBkG92gAACAASURBVGVgBAgQIECAAAECBAgQIECAAAECqQmkUOqmNAYFs4JZwZzaLGU8BAgQIECAAAECBAgQIECAAAECyQqkVO6mMBYFs4JZwZzsdGVgBAgQIECAAAECBAgQIECAAAECqQmkUOqmNAYFs4JZwZzaLGU8BAgQIECAAAECBAgQIECAAAECyQqkVO6mMJYWC+b7476n9sa2Z1q8PfVE3NLlYndNIudPIQQpjSHZmcPACBAgQIAAAQIECBAgQIAAAQIECEQktVgzhV6vxYJ5dwxFxPTUZIxPNHmbmomI4RhcruDdPhxxbHc0XgRvjT1jEUPbB0q/s2F/scnfn/29xs/XnuNTCEFKYzBLESBAgAABAgQIECBAgAABAgQIEEhZIKUuLYWxrKBgLsaeTS2UrJsORWE1CubseccOxYa8uG70PPnxXfqaQghSGkPKk4exESBAgAABAgQIECBAgAABAgQIEEipS0thLG0rmNfe+UTs+Onx2PfcwvYXG3YdiW2VJXTN4nd2VfRyES3s31plVfPi1cv5KuTBYxHVj2+hGF+lAjqFEKQ0huWuv8cJECBAgAABAgQIECBAgAABAgQIdFMgpS4thbG0qWDOCt6ZOLF/Xxw8NxOnn9sca258IvZNREwf3RVry8vZmgVzRem7fXhJOZwVxvkWGHmJnH0tbYdRvnp5/nxZad3iSuv556gYV5vvTyEEKY2hm5ODcxMgQIAAAQIECBAgQIAAAQIECBBYTiClLi2FsbSpYM6K3Ll9lUt7J++KNY8Oxfix43F44ng8uq6spK1XMGePzRXFWWlcufq4VDAfq9ibufR8dUrkbDxVy+eyMbW5NC4vv5f7PoUQpDSG5f6APU6AAAECBAgQIECAAAECBAgQIECgmwIpdWkpjGXVCuYtv5iJwuF9cbCQrTpev7CtRZ2CuXyFclYwV65Wnn28fFXy7LYa5UV0tQ/3K92XF+BdLJOrlc0phCClMXRzcnBuAgQIECBAgAABAgQIECBAgAABAssJpNSlpTCWNhXMFVtkPL8vDl8txMFn9sa2AyMxfXJv3JwXu7UK5or7B48tXZWcF9DZ16xUzr8uFLdlK6nz8819rVY8L/xe91YzpxCClMaw3B+wxwkQIECAAAECBAgQIECAAAECBAh0UyClLi2FsbSpYB6IRR/y98DeOLhv52ypvO7pePYX++KuvPCtKJJnS97KD+mrXhTnBfOaGtteLC2cu1ccN1pepxCClMbQzcnBuQkQIECAAAECBAgQIECAAAECBAgsJ5BSl5bCWNpWMDdaqK6pWjAvLoKz1cbl215UL6EX/07pecv3Wm7gPA2POS/HV+FrCiFIaQzL/QF7nAABAgQIECBAgAABAgQIECBAgEA3BVLq0lIYywoK5ojpqckYn2jyNjUTUW8/5Gx1ctXHs1XOS7fNWCifqz22O4bKS+dVKIhXWlKnEIKUxtDNycG5CRAgQIAAAQIECBAgQIAAAQIECCwnkFKXlsJYWiyY74/7ntob27I9lqvcnj0xE9MnDlR9rHT8U0/ELVXK3tkP46tWFA9EvZXPi1c8z263sSgICZfMKYQgpTEsum5+IECAAAECBAgQIECAAAECBAgQIJCYQEpdWgpjabFgrtieoqIsXlz41j92fgVwlX2VZwvnhQQt3TZjICqPiVhaUGfHDG1vcBwVr2V+fKt0fwohSGkMC1fbdwQIECBAgAABAgQIECBAgAABAgTSE0ipS0thLG0qmJ+OfcWFrTKmr0bE1ZmF7TOKR+LBVSpoV7sAXu3nTyEEKY0hvSnDiAgQIECAAAECBAgQIECAAAECBAgsCKTUpaUwljYVzOvj5js3x20ba9zuvCfWKpijWlmdQghSGsPCn6rvCBAgQIAAAQIECBAgQIAAAQIECKQnkFKXlsJY2lQwp7n9RLVCN7X7UghBSmNIb8owIgIECBAgQIAAAQIECBAgQIAAAQILAil1aSmMRcHc5ZXVKYQgpTEs/Kn6jgABAgQIECBAgAABAgQIECBAgEB6Ail1aSmMRcGsYI4UgpiPIb0pw4gIECBAgAABAgQIECBAgAABAgQILAjkPZavk6VeUcGsYFYwL8wPviNAgAABAgQIECBAgAABAgQIECBQV0CxPFss5w4KZgWzgrnulOFBAgQIECBAgAABAgQIECBAgAABAgsCebHqqxXMkcIH/gni4nc8Fv5UfUeAAAECBAgQIECAAAECBAgQIEAgPQF93uI+zwpmK5itYE5vnjIiAgQIECBAgAABAgQIECBAgACBRAUUzArmJFYu56unBXJxIBOdNwyLAAECBAgQIECAAAECBAgQIECAQElAn7e4z7OC2QpmK5hNjgQIECBAgAABAgQIECBAgAABAgQaFFAwK5itYL68OAQp/VE0+HfsMAIECBAgQIAAAQIECBAgQIAAAQJdEUipS0thLFYwW8FsBXNXpiInJUCAAAECBAgQIECAAAECBAgQ6EWBFErdlMagYFYwK5h7cSYzZgIECBAgQIAAAQIECBAgQIAAga4IpFTupjAWBbOCWcHclanISQkQIECAAAECBAgQIECAAAECBHpRIIVSN6UxKJgVzArmXpzJjJkAAQIECBAgQIAAAQIECBAgQKArAimVuymMRcGsYFYwd2UqclICBAgQIECAAAECBAgQIECAAIFeFEih1E1pDApmBbOCuRdnMmMmQIAAAQIECBAgQIAAAQIECBDoikBK5W4KY1EwK5gVzF2ZipyUAAECBAgQIECAAAECBAgQIECgFwVSKHVTGoOCWcGsYO7FmcyYCRAgQIAAAQIECBAgQIAAAQIEuiKQUrmbwlgUzApmBXNXpiInJUCAAAECBAgQIECAAAECBAgQ6EWBFErdlMagYFYwK5h7cSYzZgIECBAgQIAAAQIECBAgQIAAga4IpFTupjAWBbOCWcHclanISQkQIECAAAECBAgQIECAAAECBHpRIIVSN6UxKJgVzArmXpzJjJkAAQIECBAgQIAAAQIECBAgQKArAimVuymMRcGsYFYwd2UqclICBAgQIECAAAECBAgQIECAAIFeFEih1E1pDApmBbOCuRdnMmMmQIAAAQIECBAgQIAAAQIECBDoikBK5W4KY1EwK5gVzF2ZipyUAAECBAgQIECAAAECBAgQIECgFwVSKHVTGsPKC+Z1j8SWZ/bGtmVvO+P2dQOxpsuFbmrnTykMKYylFycVYyZAgAABAgQIECBAgAABAgQIEOgfgRQ6tJTGsPKCedOhKETE9MRkjNe8zUREMfZsWkHBvH14IaVjh2JDXlRvH47C/q1ViuvdMRTDMZgfl+jXlMKQwlgWLrLvCBAgQIAAAQIECBAgQIAAAQIECKQnkEKHltIY2lQwL1fkZmVvAwXzXFldNTbHdlcpkQdi8FjE0Pa8uM7OU+vfcmPMn6OzX1MKQwpjqXX13E+AAAECBAgQIECAAAECBAgQIEAgBYEUOrSUxtDGgvmeePD5oTh89Pii28Hnn46bb2yiYC5fnbzsquOtsWdsIVaF/YdiaP73y1cwZ8cpmFMKXq2xLFxN3xEgQIAAAQIECBAgQIAAAQIECBBIT6BWr9Wv9/d2wZyteJ5b2Ty7ktkK5l4PcnpThhERIECAAAECBAgQIECAAAECBAgQWBDo9f6t3eNvY8E8EDfdsTlu25jf7o+b5lcgN7GCeeFa1fwu33N5w/7i3PYY5auV8y0uqt2XP5bO13Zf0F5/vpoX3QMECBAgQIAAAQIECBAgQIAAAQIEEhDo9f6t3eNfQcF8Tzx6aDj27Tse46UP09scO06Wf9DfSOzYmBe5Wdk7GYf3HYmhQ7vi5vniOX987mu2Ijnb4iL7QL+qey4vLqoHjw3HYNmx2Srmuv/mt8+oOG+t8XTg/nZf0F5/vrrXz4MECBAgQIAAAQIECBAgQIAAAQIEuizQ6/1bu8e/goK5fP/jYhx8bFOsrVrIro+Bx4aikF/4eiXv/JYXs8+98OF9s4VwtmJ5SfFcVjCvqXr+dMrkauNr9wXt9efLY+IrAQIECBAgQIAAAQIECBAgQIAAgRQFer1/a/f4V1wwD+3cFFv2j8T4tYjpU0di8IGNkRepNz2wO/admom4Nhkn9u+MgZ3DEfUK5vKyOCubSyujy1Y3l/+cl8nlv1P6MMFasfMhf+0Oz2o8X62r534CBAgQIECAAAECBAgQIECAAAECKQisRifWy8+58oJ5+1wBfOvW2Ha0GNMRMX70QDx7dDIiZqJwdG9suHXumKwMrlMwZyuU8/2VSyV1dnwUY8/2rGwuxp5NVVYjLymYqxXJ2YroavdXeb68uO7Q114Oz2qMPYVJwhgIECBAgAABAgQIECBAgAABAgQI1BJYjU6sl5+zfQXzXCG79s6d8eyJYoyfOhRb7lw/v5p5vjCuWTBnJfDSErm0LUZ2NavuyTwQa/KCeftwDG0v/2C/8u8VzL0S0lp/uO4nQIAAAQIECBAgQIAAAQIECBAgkIJAr/RsnRpn2wvmfHuMql/rrWCueKyyWM4/wK9yX+ZSwZwla1FxPbuH82zg0ly5nPt06kL3ynlSmCSMgQABAgQIECBAgAABAgQIECBAgEAtgV7p2To1zmQK5sFjs6uX8yJ50VYZZdtV5I/nK5pLP5dWN5eXyuUrobOVzLP/lpTTZc+bF76d/tqpC90r56n1h+t+AgQIECBAgAABAgQIECBAgAABAikI9ErP1qlxrrhgjquTMT7R4O1q5Urj7u+B3OlCufJ8nbrQvXKeFCYJYyBAgAABAgQIECBAgAABAgQIECBQS6BXerZOjXMFBfNA3HTH5rhtY5O3OzYu3pc5gVXElaVvJ3/u1IXulfPU+sN1PwECBAgQIECAAAECBAgQIECAAIEUBHqlZ+vUOFdUMHeyiL1ez9WpC90r50lhkjAGAgQIECBAgAABAgQIECBAgAABArUEeqVn69Q4FcxdXkHdqQvdK+ep9YfrfgIECBAgQIAAAQIECBAgQIAAAQIpCPRKz9apcSqYFczRqbA1cp4UJgljIECAAAECBAgQIECAAAECBAgQIFBLoJGOq5+OUTArmBXMtWYL9xMgQIAAAQIECBAgQIAAAQIECBCoEOin8riR16pgVjArmCsmCT8SIECAAAECBAgQIECAAAECBAgQqCXQSOnaT8comBXMCuZas4X7CRAgQIAAAQIECBAgQIAAAQIECFQI9FN53MhrVTArmBXMFZOEHwkQIECAAAECBAgQIECAAAECBAjUEmikdO2nYxTMCmYFc63Zwv0ECBAgQIAAAQIECBAgQIAAAQIEKgT6qTxu5LUqmBXMCuaKScKPBAgQIECAAAECBAgQIECAAAECBGoJNFK69tMxCmYFs4K51mzhfgIECBAgQIAAAQIECBAgQIAAAQIVAv1UHjfyWhXMCmYFc8Uk4UcCBAgQIECAAAECBAgQIECAAAECtQQaKV376RgFs4JZwVxrtnA/AQIECBAgQIAAAQIECBAgQIAAgQqBfiqPG3mtCmYFs4K5YpLwIwECBAgQIECAAAECBAgQIECAAIFaAo2Urv10jIJZwaxgrjVbuJ8AAQIECBAgQIAAAQIECBAgQIBAhUA/lceNvFYFs4JZwVwxSfiRAAECBAgQIECAAAECBAgQIECAQC2BRkrXfjpGwaxgVjDXmi3cT4AAAQIECBAgQIAAAQIECBAgQKBCoJ/K40Zeq4JZwaxgrpgk/EiAAAECBAgQIECAAAECBAgQIECglkAjpWs/HaNgVjArmGvNFu4nQIAAAQIECBAgQIAAAQIECBAgUCHQT+VxI69VwaxgVjBXTBJ+JECAAAECBAgQIECAAAECBAgQIFBLoJHStZ+OUTArmBXMtWYL9xMgQIAAAQIECBAgQIAAAQIECBCoEOin8riR16pgVjArmCsmCT8SIECAAAECBAgQIECAAAECBAgQqCXQSOnaT8comBXMCuZas4X7CRAgQIAAAQIECBAgQIAAAQIECFQI9FN53MhrVTArmBXMFZOEHwkQIECAAAECBAgQIECAAAECBAjUEmikdO2nYxTMCmYFc63Zwv0ECBAgQIAAAQIECBAgQIAAAQIEKgT6qTxu5LWuSsG89s4n4tHHt8ZNXS5v1/TA+Ru5SP10TMXfqx8JECBAgAABAgQIECBAgAABAgQIJCXQT11dI6+1vQXzrVtj2+FCTF+djNPnZmK6OBzPPrYp1vZA0dutMrqRi9RPxyQ1WxgMAQIECBAgQIAAAQIECBAgQIAAgQqBfurqGnmtbSqYN8aGZ47H+NWZOLF/Z9x260CsuXF9DHx5XxwuzsT0qUOx5c71sWyJu+lQFMYOxYZSIb019oxFDG3Pniu/7Y6hGI7B+Z+z+7P7yo+rPCb7uRh7NuXPkdbXRi5SPx1T8ffqRwIECBAgQIAAAQIECBAgQIAAAQJJCfRTV9fIa11hwbw+Bh47FCemZmK8Zom8UD4Xju6NDaXyuU7JW7NkzovjrbFhSVlcXkbnxw3Emuy5lhTSdc69qLjuzHGNXKR+Oiap2cJgCBAgQIAAAQIECBAgQIAAAQIECFQI9FNX18hrbb1gXjcYz56aiSgOx7YHNi6sMs62yThajOniSOwp3x5j3abYsr8Q09cm4+Dj9ywcn5e624crLlX9H0srm1v5nfx8iXxt5CL10zH1r7pHCRAgQIAAAQIECBAgQIAAAQIECHRXoJ+6ukZea8sF89qs3C0WY/xaxHhpZfLCSuVsm4zbH9q7sD3G3ffMrXTOLv5MDD1VVkjnRW/2fMd2Ly2e88fLvg4em9sSo5XfKXueha03OrNaudr5GrlI/XRMd6cHZydAgAABAgQIECBAgAABAgQIECBQX6CfurpGXmvLBfOG/cUo7N8aa9Ztjm0nZmbVJ47Ho3eX77W8Me7aV5i7IsXYt/mJ2DM2HIPr6hS6dVclV+ylPFcwZ2Op9y8b53wprWCORoLRrWPqXUePESBAgAABAgQIECBAgAABAgQIEOi2QLd6s1TP23LBfPOukZg+cST2nJqJ6eLx2PbozthzajKmp+a2xihtlZH9XIiDzzwdW/aPxPTVmZi+WlESN1T4ZvsqR80VzvNld5XnqvdYtRXFnb4v1WB0a1zdniCcnwABAgQIECBAgAABAgQIECBAgEA9gW71Zqmet+WCec1DR2I8IqZP7o3by1Yk3/TA7NYYcW0msq0yBsoeu/lrQ6XfKbzwSENbYZTK3tIH9cXsaukqBXJ2TCMrmDtdHDd6vlSD0a1x1fvj9RgBAgQIECBAgAABAgQIECBAgACBbgt0qzdL9bwtF8ylFcyHd8+tTJ6Mw89sjZvmCuAtv5iJE7sWPshv7Z1PxI6j2WrmmZiOkdj26aVbZGRbWDT1r+Z+zdlq5+EYrFFGN1r8duq4VIPRrXE1lQEHEyBAgAABAgQIECBAgAABAgQIEOiwQLd6s1TP23LBvGHf3B7MNw7EfIFcPB47vrwpBo/NbYOxblNFAb0zDl9tpvzdGnvG6m+psdzq5fl81Sykl5bdnSqXs/OkGoxujWv+evmGAAECBAgQIECAAAECBAgQIECAQIIC3erNUj1vywXzmoePxPjYkbjv1oWCdn57jIg4fWwoTk9MVmyTsSmePTcTQ9sXVjfXL3OXL5iX/r4VzKmGrZFxJThnGBIBAgQIECBAgAABAgQIECBAgACBeYFGOq5+Oqb1gvnG++PB7IP7luy1vDHuOzQZ06cOxF2fXD+/13JePk+fG4rB+xbuX1oQLxTWa25UMPdTGLPX6h8BAgQIECBAgAABAgQIECBAgACBlAX6ra9b7vWuoGCeK4Jv3RrbSvsrj8S+7bP7MA8em4nDj88+Pr99xtRI7HlsU6xtZG/kuQ/2KwVp7FBsqPE7Te/bXOe56hfd5aV3e79f7gL12+MpTx7GRoAAAQIECBAgQIAAAQIECBAgQKDf+rrlXu/KC+a58jdboXzw3ExMF4/H0LmZOPxk2f7Lzz0RA+vaW8x2qxBu93mXu0D99rgpigABAgQIECBAgAABAgQIECBAgEDKAv3W1y33ettWMM8Wr+tj4LFDcWJqNgLjR/fGhrI9mttdzl4Pz7fcBeq3x1OePIyNAAECBAgQIECAAAECBAgQIECAQL/1dcu93jYXzHOrlNfdEwN3bJzff/l6KIJX6zUsd4H67XFTFAECBAgQIECAAAECBAgQIECAAIGUBfqtr1vu9a5OwVxjz+TVKml7+XmXu0D99njKk4exESBAgAABAgQIECBAgAABAgQIEOi3vm6516tg7nIZvtwF6rfHTVEECBAgQIAAAQIECBAgQIAAAQIEUhbot75uuderYFYwx3Ih6eTjKU8exkaAAAECBAgQIECAAAECBAgQIECgk11ZL5xLwaxgVjCbFwkQIECAAAECBAgQIECAAAECBAg0KNALpW8nx6hgVjArmBucPBxGgAABAgQIECBAgAABAgQIECBAoJPlbS+cS8GsYFYwmxcJECBAgAABAgQIECBAgAABAgQINCjQC6VvJ8eoYFYwK5gbnDwcRoAAAQIECBAgQIAAAQIECBAgQKCT5W0vnEvBrGBWMJsXCRAgQIAAAQIECBAgQIAAAQIECDQo0AulbyfHqGBWMCuYG5w8HEaAAAECBAgQIECAAAECBAgQIECgk+VtL5xLwaxgVjCbFwkQIECAAAECBAgQIECAAAECBAg0KNALpW8nx6hgVjArmBucPBxGgAABAgQIECBAgAABAgQIECBAoJPlbS+cS8GsYFYwmxcJECBAgAABAgQIECBAgAABAgQINCjQC6VvJ8eoYFYwK5gbnDwcRoAAAQIECBAgQIAAAQIECBAgQKCT5W0vnEvBrGBWMJsXCRAgQIAAAQIECBAgQIAAAQIECDQo0AulbyfHqGBWMCuYG5w8HEaAAAECBAgQIECAAAECBAgQIECgk+VtL5xLwaxgVjCbFwkQIECAAAECBAgQIECAAAECBAg0KNALpW8nx6hgVjArmBucPBxGgAABAgQIECBAgAABAgQIECBAoJPlbS+cS8GsYFYwmxcJECBAgAABAgQIECBAgAABAgQINCjQC6VvJ8eoYFYwK5gbnDwcRoAAAQIECBAgQIAAAQIECBAgQKCT5W0vnEvBrGBWMJsXCRAgQIAAAQIECBAgQIAAAQIECDQo0AulbyfHqGBWMCuYG5w8HEaAAAECBAgQIECAAAECBAgQIECgk+VtL5xLwaxgVjCbFwkQIECAAAECBAgQIECAAAECBAg0KNALpW8nx6hgVjArmBucPBxGgAABAgQIECBAgAABAgQIECBAoJPlbS+cS8GsYFYwmxcJECBAgAABAgQIECBAgAABAgQINCjQC6VvJ8fYpoL5/rjvqb2x7ZkGbo89Emu7XOquSej8nbzYvXCuBv+OHUaAAAECBAgQIECAAAECBAgQIECgKwK90LF1coxtKph3x1BETE9NxvhEndvViBg7FBuqFrxbY89Yo5kYjsFFz5GdP78ve55i7Nk0EFWL5O3DEVHl8U2HohARQ9tr/N6i87XvmE5e7F44V6MJcBwBAgQIECBAgAABAgQIECBAgACBbgj0QsfWyTGuoGC+J7YcKs4VyjPVS9vKUjYrd2sWzNVK2/LiuNrjc/dtH47C/q2zhXJWFB/bXb1cnh9P9rzF2LM/K5vr/1vtwrmTF7sXzlX/aniUAAECBAgQIECAAAECBAgQIECAQHcFeqFj6+QYV1Awz644Pn0o2xZjKE5XWxU8X+guFMGrUTAPHltYkTx4rE7Aapbbs69lvqSuHPcq/tzJi90L56pz9TxEgAABAgQIECBAgAABAgQIECBAoOsCvdCxdXKMKy6YZ1f47iptkdHQ1a1Z8lZbodzICuayY7LVy6Xnr71NRqmArljhXHnfhv3Fjm2V0cmL3QvnaihDDiJAgAABAgQIECBAgAABAgQIECDQJYFe6Ng6OcY2FcwDcdMdm+O2jXO3BwbjrgfKfs7v37g5Bj65fpntK8qL5rLyuMYq4qwMjtL+y7OrkGcL79oFc7Yvc+l35oruynJ5dt/m+r9fdW/nGuNb7thOXuxeOFeX5gWnJUCAAAECBAgQIECAAAECBAgQINCQQC90bJ0c44oL5hPfqyiSH9gbQ1MRMTUc26qUzO0tmLMCOvs3HIOL9l6eLZsrE7FkP+W5D/arPG7+56ZWW5cX441/38mL3Qvnmrf3DQECBAgQIECAAAECBAgQIECAAIEEBXqhY+vkGFdcMDd9jZsqbeuvYM5WIhf2H4qh0grm8lK3PSuQO7FVRicvdi+cq+k8+QUCBAgQIECAAAECBAgQIECAAAECHRTohY6tk2NcQcFcXuiWfb9uMPaMRWQf5nfXurL7sy0ktg+X7t/Q8HYS9QvmwWPDMXhjtWOWKZjn92qeG1NpT+aF35ktrrc2sZVHxets+PUNRCcvdi+cq4NzgVMRIECAAAECBAgQIECAAAECBAgQaFqgFzq2To5xRQXzon2Xy/ZZvu3erbHh3rKtM+68J9auQsE8u79xCwVzVnTnH/S3fTgK+7MyWcHcyeDVOlfTf9F+gQABAgQIECBAgAABAgQIECBAgEAHBWr1Wv16/woK5qyQjYirkzE+Uec2NTP3IXztX8Fcv2BemqrZInkgsg/2y/djXvi+WsFcrbxufbVytQ/869fg1XrdS6+aewgQIECAAAECBAgQIECAAAECBAikI1Cr1+rX+1dcMOdFbbXytHRf6YP0JuP00eNxeGSyrVtk1C+Yi7FnU7UyOCuN5x7LVjLP799cpWAu30qjiW0valpUeY5+DV6t153OVGEkBAgQIECAAAECBAgQIECAAAECBJYK1Oq1+vX+zhbMR4/HweefjpurFK3ZSuKm/uVbXDS7B/PcPtCD+4tl5XJWRC8UzKW9oucGk696bqY0bubYfg1eHLB3FgAAIABJREFUrdfdVAYcTIAAAQIECBAgQIAAAQIECBAgQKDDArV6rX69f8UFc1NbZFQplpspY6/HY/s1eLVed4fnA6cjQIAAAQIECBAgQIAAAQIECBAg0JRArV6rX+9fQcE8EDU/5K/8A/+y7/MP+VMwR2VJ3q/Bq/W6m/prdjABAgQIECBAgAABAgQIECBAgACBDgvU6rX69f4VFcyVZamfq+35XP++fg1erdfd4fnA6QgQIECAAAECBAgQIECAAAECBAg0JVCr1+rX+xXMXV5V3a/Bq/W6m/prdjABAgQIECBAgAABAgQIECBAgACBDgvU6rX69X4Fs4I5Ugp/h+cDpyNAgAABAgQIECBAgAABAgQIECDQlEBKXVoKY1EwK5gVzE1NIQ4mQIAAAQIECBAgQIAAAQIECBDoZ4EUSt2UxqBgVjArmPt5RvTaCRAgQIAAAQIECBAgQIAAAQIEmhJIqdxNYSwKZgWzgrmpKcTBBAgQIECAAAECBAgQIECAAAEC/SyQQqmb0hgUzApmBXM/z4heOwECBAgQIECAAAECBAgQIECAQFMCKZW7KYxFwaxgVjA3NYU4mAABAgQIECBAgAABAgQIECBAoJ8FUih1UxqDglnBrGDu5xnRaydAgAABAgQIECBAgAABAgQIEGhKIKVyN4WxKJgVzArmpqYQBxMgQIAAAQIECBAgQIAAAQIECPSzQAqlbkpjUDArmBXM/Twjeu0ECBAgQIAAAQIECBAgQIAAAQJNCaRU7qYwFgWzglnB3NQU4mACBAgQIECAAAECBAgQIECAAIF+Fkih1E1pDApmBbOCuZ9nRK+dAAECBAgQIECAAAECBAgQIECgKYGUyt0UxqJgVjArmJuaQhxMgAABAgQIECBAgAABAgQIECDQzwIplLopjUHBrGBWMPfzjOi1EyBAgAABAgQIECBAgAABAgQINCWQUrmbwlgUzApmBXNTU4iDCRAgQIAAAQIECBAgQIAAAQIE+lkghVI3pTEomBXMCuZ+nhG9dgIECBAgQIAAAQIECBAgQIAAgaYEUip3UxiLglnBrGBuagpxMAECBAgQIECAAAECBAgQIECAQD8LpFDqpjQGBbOCWcHczzOi106AAAECBAgQIECAAAECBAgQINCUQErlbgpjUTArmBXMTU0hDiZAgAABAgQIECBAgAABAgQIEOhngRRK3ZTGoGBWMCuY+3lG9NoJECBAgAABAgQIECBAgAABAgSaEkip3E1hLApmBbOCuakpxMEECBAgQIAAAQIECBAgQIAAAQL9LJBCqZvSGJYtmD92xwPh1rrBmmUK7JTCkMJY+nly8toJECBAgAABAgQIECBAgAABAgTSF0ihQ0tpDMsWzMsVpB4fiJUYpBSGFMaS/hRihAQIECBAgAABAgQIECBAgAABAv0skEKHltIYFMzLrDBeSXncyO+mFIYUxtLPk5PXToAAAQIECBAgQIAAAQIECBAgkL5ACh1aSmNQMCuY7cGc/rxlhAQIECBAgAABAgQIECBAgAABAokIpFTupjAWBbOCWcGcyORkGAQIECBAgAABAgQIECBAgAABAukLpFDqpjQGBbOCWcGc/rxlhAQIECBAgAABAgQIECBAgAABAokIpFTupjAWBbOCWcGcyORkGAQIECBAgAABAgQIECBAgAABAukLpFDqpjQGBbOCWcGc/rxlhAQIECBAgAABAgQIECBAgAABAokIpFTupjAWBbOCWcGcyORkGAQIECBAgAABAgQIECBAgAABAukLpFDqpjQGBbOCWcGc/rxlhAQIECBAgAABAgQIECBAgAABAokIpFTupjAWBbOCWcGcyORkGAQIECBAgAABAgQIECBAgAABAukLpFDqpjQGBbOCWcGc/rxlhAQIECBAgAABAgQIECBAgAABAokIpFTupjAWBbOCWcGcyORkGAQIECBAgAABAgQIECBAgAABAukLpFDqpjQGBbOCWcGc/rxlhAQIECBAgAABAgQIECBAgAABAokIpFTupjAWBbOCWcGcyORkGAQIECBAgAABAgQIECBAgAABAukLpFDqpjQGBbOCWcGc/rxlhAQIECBAgAABAgQIECBAgAABAokIpFTupjAWBbOCWcGcyORkGAQIECBAgAABAgQIECBAgAABAukLpFDqpjQGBbOCWcGc/rxlhAQIECBAgAABAgQIECBAgAABAokIpFTupjAWBbOCWcGcyORkGAQIECBAgAABAgQIECBAgAABAukLpFDqpjSG9hfM6zbFfU/tjW1PPRED6wZiTZcL3NTPn1IYUhhL+lOIERIgQIAAAQIECBAgQIAAAQIECPSzQAodWkpjaHvB/ODhmYirMzF9NWL68NMK5mUK9pTCkMJY+nly8toJECBAgAABAgQIECBAgAABAgTSF0ihQ0tpDCsumNc+tC+GCsUYem5nPPjcUBSuRpzYdU/cvGsk4moxDj73dGx5bjgKheHY8dD6FgvnrbFnrCxcx3bXfJ4N+4sxtL13Vk6nFIYUxlJ2lX1LgAABAgQIECBAgAABAgQIECBAIDmBFDq0lMawsoL507ti6GpE4dhQnJiKiIlCHHxma9xUWrW7MTY8MxSnJyLiaiEOHytGXB2ORz9dp/zdPlwzMItK401bY0O1lcHZ79cpn1PcLiOlMKQwlpoB8AABAgQIECBAgAABAgQIECBAgACBBARS6NBSGsPKCuaNB+J0zMThx5dfmbz28eMxHYXYsbF+wVzYv7Xm6uS6BXFWLo8dWlw8bx+Olp+vWoG9CvelFIYUxpLAHGEIBAgQIECAAAECBAgQIECAAAECBGoKpNChpTSGlRXMN94T207FkhL3pjs2x213bFxUFGdbV8SpvXFzvZK21UK4Wrk8d57svCmXzCmFIYWx1PzL9QABAgQIECBAgAABAgQIECBAgACBBARS6NBSGkPrBfO6e2Jg86E4HcV49t65VcnrBuPZUzPzl3n61IG4a93cY/ceiEIUYs/mTXFzfl9l2Vxni4z5J82/mdsKo1RcV1m5nB+Wf120xUblebv4c0phSGEs+fXylQABAgQIECBAgAABAgQIECBAgECKAil0aCmNocWC+Z7YdjLbW3kmTh94en5V8m3PFyLGhmLLnetj7Z074+BYxOnnN8+tZL4/HvxpIaavRsSJGiuZm13BXKuQrrIP8+CxSPLD/1IKQwpjSXHSMCYCBAgQIECAAAECBAgQIECAAAECuUAKHVpKY2ixYN4ae8aWFraPHosYPzA4vzXGXQcmI47tmv+5tIdyne0s1jRbMDe18nh3DFWudG7q9+vsHb2C50kpDCmMJf9D9ZUAAQIECBAgQIAAAQIECBAgQIBAigIpdGgpjaHFgnl9bDk8uxXG9LHdcctcwXrzrpGIqyOxY/PmuG3zvjhxNeLErnvmVzAPHpv7nV/sjLVVStn5/ZI3HYpCnfQs3lN5dwzVOXb2oWLs2bQ6BXHdDx6s8horj08pDCmMZdlL6QACBAgQIECAAAECBAgQIECAAAECXRRIoUNLaQwtFsxZWbs+br73QJyIydj3cF7ezm2DUbrAM3H6p0/Pl89rHj4S4zESz957T9VyOSte57exyArmGquN50vo+fI2K5iHY3D+53ws+ddstbWCOaXQ1RtLF+cGpyZAgAABAgQIECBAgAABAgQIECCwrEC9bqsfH1tBwZwVuBtLezEvXlGcF7uLv5Y+jO/k3ripZhGcFcVzRbCCOfoxjNlr9o8AAQIECBAgQIAAAQIECBAgQIBAygL92tvVet0rK5gfyLayaHB1cGnbi2LseWBx8Ty/ZUS2N3P+4Xy2yFAwpzyLGBsBAgQIECBAgAABAgQIECBAgEDfCtQqWvv1/pUVzOt2xuGrEdPFYkxnkbo2GacP747b1w3EmnWPxODhQoxfyx6YiUJxJuLq8diSPVZlFfPgsbKi2gpmBXPfTlFeOAECBAgQIECAAAECBAgQIECAQMoC/Vok13rdKyuYs6L4jqfj2cND8exjm+O2L++LoYnZD/YrfeDfxHDsePSRuP2xA3Hw8IF48I7q5XK1wrlf7qt1Yfr1/pQnD2MjQIAAAQIECBAgQIAAAQIECBAg0K+9Xa3XvfKCuWI18n0/XdhHd/ynT1Rdrdwv5XEjr7PWhenX+01RBAgQIECAAAECBAgQIECAAAECBFIW6NfertbrbnvBnH3w3y0bN8dtG++v84F+VjLn5XOtC9Ov96c8eRgbAQIECBAgQIAAAQIECBAgQIAAgX7t7Wq97lUomJXHeXncyNdaF6Zf7zdFESBAgAABAgQIECBAgAABAgQIEEhZoF97u1qvW8FcscVHI6VwO4+pdWH69f6UJw9jI0CAAAECBAgQIECAAAECBAgQINCvvV2t161gVjBHrXB0435TFAECBAgQIECAAAECBAgQIECAAIGUBbrRmaV8TgWzglnBnPKMZWwECBAgQIAAAQIECBAgQIAAAQJJCaRc9nZjbApmBXNSBfPMtWtJTRgGQ4AAAQIECBAgQIAAAQIECBAgQCAXyLqrbpS4KZ9TwaxgTuqPYmLySv736isBAgQIECBAgAABAgQIECBAgACBpASy7irlsrcbY1MwK5iT+6PI/lCtZE5q7jQYAgQIECBAgAABAgQIECBAgEBfC2RdlXJ5smqPqGBWMFcNRjfe7XDO6n+kXLjIgAzIgAzIgAzIgAzIgAzIgAzIgAzIgAykmgEFs4JZwXzZBJXqBGVcsikDMiADMiADMiADMiADMiADMiADMiADaWdAwaxgVjArmGVABmRABmRABmRABmRABmRABmRABmRABmRABlrKgIJZwdxScLxzlPY7R66P6yMDMiADMiADMiADMiADMiADMiADMiADMtCJDCiYFcwKZu9OyYAMyIAMyIAMyIAMyIAMyIAMyIAMyIAMyIAMtJQBBbOCuaXgdOLdD+fwLpsMyIAMyIAMyIAMyIAMyIAMyIAMyIAMyIAMpJ0BBbOCWcHs3SkZkAEZkAEZkAEZkAEZkAEZkAEZkAEZkAEZkIGWMqBgVjC3FBzvHKX9zpHr4/rIgAzIgAzIgAzIgAzIgAzIgAzIgAzIgAx0IgMKZgWzgtm7UzIgAzIgAzIgAzIgAzIgAzIgAzIgAzIgAzIgAy1lQMGsYG4pOJ1498M5vMsmAzIgAzIgAzIgAzIgAzIgAzIgAzIgAzIgA2lnQMGsYFYwe3dKBmRABmRABmRABmRABmRABmRABmRABmRABmSgpQwomBXMLQXHO0dpv3Pk+rg+MiADMiADMiADMiADMiADMiADMiADMiADnciAglnBrGD27pQMyIAMyIAMyIAMyIAMyIAMyIAMyIAMyIAMyEBLGVAwK5hbCk4n3v1wDu+yyYAMyIAMyIAMyIAMyIAMyIAMyIAMyIAMyEDaGVAwK5gVzN6dkgEZkAEZkAEZkAEZkAEZkAEZkAEZkAEZkAEZaCkDCmYFc0vB8c5R2u8cuT6ujwzIgAzIgAzIgAzIgAzIgAzIgAzIgAzIQCcyoGBWMCuYvTslAzIgAzIgAzIgAzIgAzIgAzIgAzIgAzIgAzLQUgYUzArmloLTiXc/nMO7bDIgAzIgAzIgAzIgAzIgAzIgAzIgAzIgAzKQdgYUzApmBbN3p2RABmRABmRABmRABmRABmRABmRABmRABmRABlrKgIJZwdxScLxzlPY7R66P6yMDMiADMiADMiADMiADMiADMiADMiADMtCJDCiYFcwKZu9OyYAMyIAMyIAMyIAMyIAMyIAMyIAMyIAMyIAMtJQBBbOCuaXgdOLdD+fwLpsMyIAMyIAMyIAMyIAMyIAMyIAMyIAMyIAMpJ0BBbOCWcHs3SkZkAEZkAEZkAEZkAEZkAEZkAEZkAEZkAEZkIGWMqBgVjC3FBzvHKX9zpHr4/rIgAzIgAzIgAzIgAzIgAzIgAzIgAzIgAx0IgMKZgWzgtm7UzIgAzIgAzIgAzIgAzIgAzIgAzIgAzIgAzIgAy1lQMGsYG4pOJ1498M5vMsmAzIgAzIgAzIgAzIgAzIgAzIgAzIgAzIgA2lnQMGsYFYwe3dKBmRABmRABmRABmRABmRABmRABmRABmRABmSgpQwomBXMLQXHO0dpv3Pk+rg+MiADMiADMiADMiADMiADMiADMiADMiADnciAglnBrGD27pQMyIAMyIAMyIAMyIAMyIAMyIAMyIAMyIAM9HgGiuMT0Y2bglnBbPLo8cmjE+9EOYd3PGVABmRABmRABmRABmRABmRABmRABmQgnQx0o0iudU4Fs4JZwaxglgEZkAEZkAEZkAEZkAEZkAEZkAEZkAEZkIHEM1Cr4M3vv1S8HN24KZgVzCaPxCcP7w6m8+6ga+FayIAMyIAMyIAMyIAMyIAMyIAMyIAMdDIDeXlc+bVWkXzx0nh0+qZgVjArmBXMMiADMiADMiADMiADMiADMiADMiADMiADMpBQBioL5eznylK5skgeu1iMbtwUzApmk0dCk0cn3wFzLu+4yoAMyIAMyIAMyIAMyIAMyIAMyIAMyEB6Gagsl8uL5fJSubxMHh27FLVuhdGL0c5b5XkUzApmBbOCWQZkQAZkQAZkQAZkQAZkQAZkQAZkQAZkQAa6nIFaxXK1Urm85C0vjy8UxqKTt+zcCmYFs8mjy5OHdwrTe6fQNXFNZEAGZEAGZEAGZEAGZEAGZEAGZEAGOpmB8nK52orlbLVyXirnhXJ5kXz+wmjkt3PnC9GJW34+BbOCWcGsYJYBGZABGZABGZABGZABGZABGZABGZABGZCBLmWgWrmcr1quLJbzUjkvd/Mi+ey5C7HodvZ8nF3N29z5svMrmBXMJo8uTR6dfBfMubzrKgMyIAMyIAMyIAMyIAMyIAMyIAMyIANpZaC8WM6+z1cuZ+Vyvr9ytmo5W7FcXiwvKpXLSuSRkXNR7XZm5Gy061b+/HmBrWBWMCuYFcwyIAMyIAMyIAMyIAMyIAMyIAMyIAMyIAMy0MEMVCuXK1ctVyuWS6uU50rlvOwtL49PnxmJTtzyc2ZjUDArmE0eHZw8vFOY1juFrofrIQMyIAMyIAMyIAMyIAMyIAMyIAMy0OkMlJfL5auW85XL5auWs60wshXLebFcWSrnZfKp0yNReRs+dSZW45afJz+3glnBrGBWMMuADMiADMiADMiADMiADMiADMiADMiADMhAhzKQF8zl5XK1LTHKi+VsO4qsXM5WDufFblb0nj49EmfOjJQK6AsXCnHhwmgUCmOlr9n3nbgpmBXMJo8OTR6dfjfM+bwDKwMyIAMyIAMyIAMyIAMyIAMyIAMyIANpZSAvl7OvWcHc6KrlvFjOVw+PnD0/Xx6Pjl6M8fHxmJiYiMnJqZiauhJXrnTupmBWMCuYFcwyIAMyIAMyIAMyIAMyIAMyIAMyIAMyIAMysMoZaKVczovlbNVyVi5nK5mzD/zLSuXLlyc6WiTXKq0VzApmk8cqTx7eKUzrnULXw/WQARmQARmQARmQARmQARmQARmQARnodAaqlcv56uX8w/zm91uu2A4jK5ZHRmZXLI+NXYzJyckkiuW8cFYwK5gVzApmGZABGZABGZABGZABGZABGZABGZABGZABGVjFDOQFc+W+y9kH+mUrkuuVy+fPX4gLF8ZKW2DkpW5KXxXMCmaTxypOHp1+N8z5vAMrAzIgAzIgAzIgAzIgAzIgAzIgAzIgA2lloF65nK1erlUunz5zNi4URuPixUtJrViuLLcVzApmBbOCWQZkQAZkQAZkQAZkQAZkQAZkQAZkQAZkQAZWKQPlBXO+LUa2cjnfGuPc+UKcPXchRkbORb7ncvb1woXRuHRpPOlyOSubFcwKZpPHKk0e3i1M691C18P1kAEZkAEZkAEZkAEZkAEZkAEZkAEZ6HQGysvlbHuMvGDOy+Vs9XJWLmcf3peXy6WVy6VyOe2Vy/lKZgWzglnBrGCWARmQARmQARmQARmQARmQARmQARmQARmQgTZnIC+Xs6/l5XK1fZfzcjn7QL+sdC4WLye/clnB3OViec3c+Tv9ronzeadOBmRABmRABmRABmRABmRABmRABmRABmRABlY/A3nBXP7Bfku2xjh7vrQ1xukzI1Eql89fiLGxiz1TLtsiI4GS2R/z6v8xM2YsAzIgAzIgAzIgAzIgAzIgAzIgAzIgAzLQ6QyUF8z51hjlq5crt8Y4c+ZcXLgw1lPlsoJZwew/fWjzf/rQ6YnK+fyPowzIgAzIgAzIgAzIgAzIgAzIgAzIgAykl4Hycrl8e4x87+XSB/tVrF7OPtRvYmJi5QXz5OW4UizElfHaezhPXpyKicJkTF2eWvH57MHc5ZLZBJDeBOCauCYyIAMyIAMyIAMyIAMyIAMyIAMyIAMyIAMryUB5wbzc6uVsa4xz59q0NcbwizH5/D/GxOOfjcuPPhIT3/1ZTI0u7Oc8OToZZ54+H7/4h+H46e3DcWjTuTj9s/G4MnWl5aJZwaxgtorZKmYZkAEZkAEZkAEZkAEZkAEZkAEZkAEZkAEZaGMGqhXMdVcvF8ZicnKy5ZK39IF7J3fH5Nf/IMbvem1c+ts/j7EPfC4Kbx+M4uZX4sr4VEyNT8XJzWfiR380FN/7/aOx8w9/Gd94w4nYdvPpOHFgvOVzK5gVzCaPNk4eK3lny+96Z1QGZEAGZEAGZEAGZEAGZEAGZEAGZEAGej8D5eVyvj1G/uF+5y+MRr49xpmRs5F9uN+ZkXMxOrrCvZcvnYnJ73w8xu96TVz6xAdmy+U/3hrnf3dPnH7dS3H5aDEuvTIeP37r0dj92rly+fUn4tE3/Toe+pPTseOuQly80Np2GQpmBbOCWcEsAzIgAzIgAzIgAzIgAzIgAzIgAzIgAzIgA23KQHnBXGt7jJGRc5EVzNn2GOfPF+Ly5RXsvVz4ZUw++8kY/+Kb4tIn3h9jf/65GPvIN2Lsbw7G+b88GqcGjkXxpUsx8vzYfLm8/Z0nY/u6M/HPf3I67nvbSHzx/efj6X++FOfPNF8yK5i7XDCPXZoKNwYyIAMyIAMyIAMyIAMyIAMyIAMyIAMyIAMycH1kYPTiZGS3wthEXBi9HOcL43HuQjFGzl2MMyOjcXqkEMOnz8fJ4bOlW/bhfqUtLq60sA/yxKWY3Hnz3MrlrFz+bFy8dVuM7zgZF+75VZz5x5Pxq88Px8XDxTj1vbHZbTFefyK233I69j4yGve/fSQ2vuNcfO5Pz8ft7y7EV+69FJeb/OA/BXOXC+bwjwABAgQIECBAgAABAgQIECBAgACB60bg1Vdfjez2m9/8Jq5duxYzMzMxPT1dKpGzfZYvX74cxWIxLl26FKOjo3Hx4qWWC+apX+2P8QfeVlq5fPFjd8bkkV/F5MuX4vTbfx6v/IeX4tDvHo4f/t4v4sx3R+Pk7ovxjdefiH9Z++vY8emz8dJ3x2Pzxy/Ene+5ELffWIjb3l2Iv79lLI7+vLm9oBXMCubr5o/XCyFAgAABAgQIECBAgAABAgQIECDQbYHKgvnq1aulgnlqaqr0QX55wXzx4sXS3svFYusfsDf58x9G8Y6/iIsf/PsY/dOtcemhY3HujuNx9LcPzZfLz712KIa/NxbHn7sUW990Mn6wuRAvfuNS7Prypfj+N4rx9JZL8ZkPjMZfv2c0bvvoxfjZQQVzrOlyadzM+bsdeOcnQIAAAQIECBAgQIAAAQIECBAgQKB9AvUK5omJiRgfHy+tYM4K5kJhNLL7Wt0iY+rXJ+PirV+I0T95JM7/p+/G8H/8SbzyHw/FS6WVyz+PrFz+9h8ci189dzGOfr8Ym99yKrbcfDbufve52PCu83Hnh0bjzo+Nxt+8dzT+4r0X41MDxTj5q+b2YbaCuctldPui65kIECBAgAABAgQIECBAgAABAgQIEOimQHm5nG2RkW2Pka1gzgrkbAXz0oJ5LCYnmyt058voi8W4PLgnRt+5tVQun/qtg/HKby8tl5/8o+Pxy+cuxsvPj8f9a8/E599xLv7hxqxcLsTf/VmhtHL5Y++7GAMfLcY3vzkRP3/5ShSLje8HrWBWMHfzb865CRAgQIAAAQIECBAgQIAAAQIECFw3AuUFc77/crWCOdt/eXYF81hMTTVe5s6Xy1euxOWd+2P0HY/Ghf/8vTj9H34Sx37npdLK5R/93s/j+68dimf+4Fhk5fJX33gyXvl+MY48P14qlze883z8wwcKse3hYux4bDy+sqkYX33kcuz618n46uBk/Je/nohnnmu89FYwK5ivmz9gL4QAAQIECBAgQIAAAQIECBBIQ+Cl0VfTGIhREOiwQLMF84ULoy1vjzH24W2z5fJvHYzi9wtx7olz8cs7h+MXG0/FobvOxI/vHokXv3AunrvvfJz6+UT8297LseFPz8ft77oQn3pPIT7z4bHY+JlL8ZWHL8fu3ZPxd+sn4j0fvhxv++hEfHSjgrln9mHucMadjgABAgQIECBAgAABAgQ6JHD27Nk4fvx4vPLKK24MVi0D/+PXfhMp3v79U7+Jx44pmTs03ThNQgKdLJgvvHZ3nP6tg3Hstw/FhT2jMbztQhz+/On4yd0j8aN7z8beL56P3fcX4jsPjMWvX56IQ3svl8rlT767ELe+ZzQ+9t6L8ZH3XYpb/2o8Hnt8Mj7wF5fjbR+ZiDffOhVvvqPxVdVWMFvBnNCfoKEQIECAAAECBAgQIEDg+hHIyuVs703/CKymQIrlcj6mrGT2j0C/CTRbMBcKrW+Rcfamn5fK5X/7ncOx/7W/iD1/sHhbjP/2llPxT2vPxF3vOBcv7b0cP3thIirL5Q++vxgf+sh4fPbzE/Huj0/EW26dijfcfiX+8svTDa+sVjArmPvt79zrJUCAAAECBAgQIECAQEcEspXL/hFYbYG8zE3162q//l58/hPjr8ZDL1+L9++9Gu/eM3vLvs/uyx7zr7cFygvm8g/LLxRZAAAgAElEQVT5m56ebvuH/F3aXYgj/9+R+NF//nl8/zWz5fK2uT2Xt7zlVDyQf6DfO8+XVi8ffOHyopXLWbn83j8fj3d98HK8/aOz5fIbb78Sb753Op5/WcFsi4ze/ls0egIECBAgQIAAAQIECPS8gIK55y9hT7yAVIvlfFw9gdiBQc68GvHEiWvx/+6Yjn/32JX4H2rcsseyY7Jjs9/xrzcFykvm7IP+sg/5q10wj8bExETDq4XLP+Rv6vJUDP/Ludj7+qOlD/TLyuXH3nIyHv6TbOXySNz1znPxD+88H+vfdSF+8sLlOPDiRPzley/GbR8rxoc/NFsu/9mHL8dNfz0Rb//EVJTK5Xum4+s/mo6Jyetqi4wnYsfR43G46du+uK/Lq5PXNHD+3vwzaWzUL7/8cmMH9tFR17vJ9f76VjOq7FZT13MTIECAAAECBLojoGDujnu/nTUvclP92m/Xo9rrffnSq/G6XdM1S+VaZfOaZ6Yj+13/ek+gXsE8OTkZly9fjmKxGBcvXozR0bEoFsdbKpizsnnkxYvx3bXHY9vrjsfX3/br+PFXRmPX/YW4+x0L5fKn3l2IbPXy/hcn46PvuxRffvhyfPPpyXjgoYn42rapeOSpK7HuS1fidRun463/PB0vHmu8XM7G0ANbZOyOoZZyNByDDRS8jZTAq3lMSy+tR35JYbb0Ql3vJtf761t6Rdt3D7v2WXomAgQIECBAgEAqAgrmVK7E9T2OVIvlfFwp6L90NuLvnov4zPcXj+brQxGf3bf4vnb/9NyZ38T/sa32iuVa5XJ+///+xJV49rS9rNt9XVb7+SoL5mw//mwFc1bGlhfMly5ditHR0bh48VLLBfO5nxVj540n42tvPBlbbzwdw4cvx5njk/HgXxVKK5ezcvlv3jMaP35xMn74g8nItsX44IfH4857J+IHB6bi0/91Kt698Ur88T3T8fv/dDXe+rWZ+OnpxrfH6JGCeaBntrtopYhe7UB38/kVZkv1r3eT6/31Lb2i7buHXfssPRMBAgQIECBAIBUBBXMqV+L6Hkde5Kb6NQX9L+6L+OC3It78eMRL5xZG9KWfRLzjWws/t/u7rBjOCuKsLP6/vjkdm4euxeWyz/3MtsDICujXfqf+thlK5nZfmdV/vmoFc7ZNRl4wZ1tijI+PR1YwZ6uYL1wYbblgzrbJ2H3H2Xg423P5rWfirrefjf92WyH2f+9yPP3lYjy+pRiPPTwev3xlKvbtm4z3ze25vO7vJuPL37oSb/n7K/G6f7xSKpfXPDwTf7t7Jsab2B5DwZzACueVR/qJuGXN3XFkyRMdibvX3BJPLLl/6R1PfOSGuOXJpfev9J72F2ZPxC033BA31Li95vO5Qv3jZn+/mk32e6+Ju1/KXnnml3+/UomF3+89k4WxN/Jd+19fI2e9Po5ZuV3ZXPDS3fGayr+Tj5TNBk/eEjeUfl5mnsieZ83dcfdHboiFv6/rw9urIECAAAECBAh0QkDB3All52hXsfwHz/wmslu7ni9/nhSu0Bu/FvG1lyLe/PWI+/cvjKhUMG9f+Lmd352bejV+99uz22Ks3X01xqZrb3WRPfKFw9fif/l69ZXO/9PgldJzZc+5Gv9+8rMj8fHb7ozxyxOlW/Z9dl/lv3/97gvx0CODpcfy4yuPyX7v997wvnjzn94SZ0bOVz7csz//6NHPxq8PPjs//uz75zf9VVydHJ+/r/ybrGC+XDgT3//Sx6N4/lRkK5iP/+iZ+Oan3hTbPvmmePK2N8Y3PvGG0u2H3/hSFApjcflya/swZwVv4deT8Z0vFOK+92TbYpyLv7/xQtz9V2Ox+fOX4sG7i/HAPePxytGp+PGBqbgx+0C/D0/Eu26big9+YaFc/sNHZuKOPVfjV6PNbY/RcwXz2vuejgc3DsSah/c1sCdzv+zBXFYqLSpFlymOsoKpsoAq/7lqaV3+p7L89ystzLLie9EYKwuymmMsN6k2zqxIrlIwP3nL4hKtVNJVOa7aUzZ4X8+ZNPi68sNW+voiarw5UPNa52du8uuS/Lf/zYQmRxQrt4s48vnXzBbHWXYr/16yn/NiOf+aDbKU8xqvf65gzv5vxWq9EdWsk+MJECBAgAABAr0k0EzBXBi9FFsHvx2Tk1eWvMQf/+TnpceWPBAR2e899MiTpa/lj2f33/vAV2v+XnbsK7/8dfzTQ19f8rvlz+P79AXyIreVr//+qd/EV195tbSqdmImIrtlK2yfPPFq/Kcd7SmbVyL47ImID34n4i1PR7z1WxFrvx3x9u9EvPPZiD/dHXHj9yPe83zEe1+MeN8PI96/P+IDByM++NOIm1+K+O+nIv71lYg3fDXi7OWIT30v4kM7Fkb0wMGItz298HM7v7vtxzOllcvZB/admmisGP7nl6/F/1ylZM72Yv5fH78S2XM2+u/vPvvFhkvelRTM2Xn+n9956/xtuWI5K52zY/LfyUrr5f5l47vxz/9mSWFdfu5Gnme589R7fGJ0JJ774ofjwrGflYrmHZ95c1S7PfO5d5aOObxzS3zrM2+Ob336j0u37z/w8Ti658l44ZH1MTU1Nb9Nxv4nN8WPnvhSaR/mwvnzLa9iLpXMI5OxdcPo7LYYN85ui5F9oF+25/Ktf1mMkyen4sTJqbj5ExPxloGpeONn5srl+6/G722Zib96diZOXWxua4zsvD1VMN/ytaEoRDH2bBqINU8OxfjE5DK3oXg0gRXKy22bUS+8jT1WXqaWr7qdLZhvmS9pKwqksoJpaXFU/pyNjaLaUe0ozGYLx6Ulb1ak1V5Rudz4qxXMNYrN8tJ97vuVrPbuLZNqV7X+fSt/fXPXYVGhnF+bpTmoP5rqj5ZK2BsWr9rP38xYybWtfrbG71253ey5nvjIa+LuJ+cK5rxozv/eK7/mw6t8cyW/v6xgzu/ylQABAgQIECBAoHGBZgrm7FnzIjn7+rnPb6l7+/auF0sDyUrir29bWFWX3Zndd88DXy19zUrr/NhqI8/OlRXU1Yrtase7Lz2BVorl7Hd+/9u/iZ8WIn5+MeKmPa/Or1x+67Ovxo/ORbxyKeIN/7rykrlVsU98L+KNj0e86YmIN38z4i3bI966I+Jtz0S8418j3vndiHftjnj3nog/2xvx3h9E3PSjiPf/OOLPfxLxoZ9FbD8b8bffibhtV8ShsxFf/GHEHw8ubJPxwIGItz3V6ghr/96J8Vfj/356OrKVx1/75bX49eVX40MvXI3/85vT8Y7nrsZojdXMWQ39yQMz8e8eW7ySed2+mfj970yXnjN77uX+ZWVrVuL+w90PRVbCLvdvpQVzo+VutkL6Qx+7vbQKOhtT9nvZaufs/LX+ZY9VWxGdv8assC7/vtbztHp/VihnpXF5mXzk2w+XSuQfbPnU/Arm7Ljyn7NjspI5W8l87uhP4oXNn4xXnt9WKpjHxy7E81s+E+eGfxk/fvLBUsFc2ibj/IVS8ZyXtq18fWnfRGz8i9HSnst5ufwXHynGN5+aiMsTV0q3x74zFe/83JV43Z1X4vfvvxprtszE2m9ei+/9qrVyuUcK5vVx+66RmC4lYa5g7oHieLliOX+81YBnv5eXYvkq31uezErlilW/paKuvHieO2NeNJV+nP29hXJtuYK2sVG3pzArL4OrvL75Ari8fMwLyQqL+WOz+8uPn1v5WeW+2iV2YwaVR/WSSeXYG/l55a+vWsEcsytvb2jDNg2l1bo3zG0PUf6K8mwtzkX5Eav9/YrtykvivFjOv+Z/75VfF72o5v9uFv26HwgQIECAAAECBJYINFswZ0+QlcVZQVz+Ly+ey+/LCuGsGC4vorOfn9rx/fjHL/z3+edoZCVzVkDXK6HLz+v79ARaLZi3n3w1fnQ+IlvFXPkc/9vXfxM7f/1qvHg2Ivu+8vFmfm5F7Cs/i3jd1yJe/1jEG+ZK5j+uKJnfPlcyl1Yy74l4z1zJXFrJ/OOIv/23iJHxiD/8csQffSXi9Vsjsq0y3vRYxH0/mh3VP/044q3bWhlh/d/50s+vlUri3/rWdOw9+5tSMVz+oX0/vlD7Q/uuXMtK86ul1c/572Qrl2/dP1s8Z89d719l2ZoVzNm2FpX/yu+vVzBnz5eVwlk5nH1fuUVG9jzZ/Y38y1cv58dX/lz5HNm5spXO2TkqV0Zn92W37F9eXOfPW/k8K/05W72cbZGRb4eRbY9RXjiXf//sxpsiOz4rmA889vnY/YUPxy++9y/zBfOLX14fWcG89+Hb4/yp43Fg24ORrWLOCuaTLx+KwrmzK1rFPDV1JY78ZCK+8eXx+K9fHI+H//ly/P/tnfmTFOd5x/VfOJWkKocrlcQVV7lccWTH1oFu60D4EJLlSz6iOCE/yClFZRk7ES4nNpJQZAlkCQkBMkgssLCAAHFfCwIJLSCuSBzLKRZp73Nm2Z1v6vt2PzNvv9O9M9M9szszPF019Xa//b7P+77f6d4qPvPleXfuHERPTy7tRXdvChtaUpi5Po3pbw3jmb3DePtCGoNDuTalwu1rBHRWbzkTv96ugDn6ZRAYLIBMnMq8FlhmnRMwBUDrWBA2DMRFz8S9kxiYmYAuYJb12aPZbVgvmtht7HOnvXFpTsM0F86H6WSnHbBDFnleM5oUuR63WfL1+ZAz4GDmKH69pX/gBxZp7wNk+4cB27Fsn7tz9+7J8yXzsJ8Luef1lFjyPtljurGLuS6XduaHIgHLUrpg2b/OrkH0cydq3o2wHO9uQ71WBVQBVUAVUAVUAVVAFQhTIA5gZpwweGyDZBsg20CabuVXF63JA89SF+VUJlxmOg3CaD1qT4FSYK+0vW9LBq19wLQ9Oeey3JPyW9syONkL/HNzdBtpO1YZR9FHNwC3LwK++gZwZwNw93LgnhXAvauAr60BvrHOdzJv8p3M230n8+6ck7npI+CpncDt8z3Q/MGAN5PHt3gb/vHquQoAZvqL6VImHH5gxzB+tDsHi5ljmbmWC3mQma+ZMehkZsqMhtYRs0EgY7I+qj+BrAtiuU4bxsr3QRgr4HgswMy+AqjZR1JbsGR/5mK26+Rc4K+Mx1JAsB0vbL7Sp/nt97Jg227nxnGvpX+5ShcwM67rWHav8xzMrzyOk81NeHvBE+jv7kDz/P9E+0dnDGCmi5mb/R3buQqXzp8FNwAsFfC67Qf6U+jqSqG3Nxoa9/Sn0NGXKnlDP3csXtcAYP53EH5rioyo18KGqQTJAsEsqGxyMwts9uIQznlAzANpOfcy79sxo8YtXJ8cmPlzyTqLo9bHNdjrKzT/YHuTUuCwrZe3NsK3pNDQValWNHHnXex18vUJ2HWhZrDeg8vyrPv3DHzm92g71P1rH6AG+wVXJbDVexf8mIFNH624DsgeK25wlOir5Nr5+ZS5VgHLUkYAZm82Y70vY92LXoveUQVUAVVAFVAFVAFVQBXwFCgFMIsbOQwChzmYOQKBMKEyXctsE+cQmP38Sw3qYo4jYBX0GQvuRt37xXsZkxrj5nXR7mQ6lw+0A7MOjz9gvnk+cOtCDzIbJ3OD72QmZG7yILOkyxAns6TLECfz8V7gyR3Aay3A6jbg4SPel9XWDzy+1cvJ/MZRYEl0doZY325HKoOvrPM297t3yzA+3eiluyAoZo5lOa5kgH2fjJq63ZdHTe5ruSfl5aGMyd9MoPyLFi+nM2NzDPsQJ7ANdQmD7WtCXTsdBaEs4TDhchRgZlxCZJY8GFPgsIzPMeQjdWzjtpN7LNleADXnUejguGGAmfVyMOZYY0q7OCUBM53J4lSmgzksdYZs+mffM3mYf3mv2exPAPNAT6cBzB2XzqKl6UUDmXt7e3F812oc3bXWbPgXBnGrua5mADMhs27yF/Ya2ACoGADrgbMgUJYNvASqJXMuyyzLAsyMc1XgcTHr4+jWOsJcyKZOYspsBUxWztHNkWpLE9Gm+DL5+vzvLs9Ra9fb597cPMDrfacBUFwCCA70k2fImkfgvh/XuJetNsUrld8yuXZWzEJgWYCz6SJ/Q0LegX+Z5vx4Y42hp6qAKqAKqAKqgCqgCqgCBRUoBTAzGFNj0G3Mj+1YDjsniF6zfpeBwnQgEzCzP93N0l6gMyEyY7qpN2RMbvR38vSF0M0CCy5SG0y4AlEQeax6AuaWduDzTdGAmf2Zo3nOsfEHzDfNA26ZD9z2Wr6TefIKYAqdzNz0j07mDcDUTcADW4EH6WTeBXx3N/CbY8DKi8A8bhR4EPin98fnqzrVm8FnVnpQ+c+X53Ipf39Xznm88eIoPtvkQWhJg0EATcfz4a4gPOasPx7K4Lr1XnvG5hhyEA7fc/+/5uUxdgEz2wuIFjArIDgKMLsxeO1CXILdxQ1rDDQWWMzcz4zpHjK+xIiau9uP4040YGaKDIJm5lkmQHYdy+41Hcz8MAfzJycPYvcrj+NU8yrsXfgEui+fz+ZiblnlAea+vj4DmPct9zb86+7uSexiHk8gXVOAuXrTeHgu6zjzc1+a0q8FDrFnPoDNbvJnpRYofYx4PcoDzAgTBQbnr6/RTM1uwwpbk7C5u+3ZhrFlHK8PgaI6mMP0i65L/p3nw2NvNL/ePMf+ed6PB/mOZg8KS73k2g5u8CerCQDkEMAMQlkrD7QHte0fJILPj8QttkyuHUfyn20fMGefYQHKbmkm574vfgxzL/+9KHY92k4VUAVUAVVAFVAFVAFVAIgLmAmEo1zLdj3dywKTWQqcZn+Bzmyze++hSMDM+5J/maWc6/dXOwqMBZKj7v1kdwane7lJXjQ8nrxpFKd6gZ+9G90mKr5dH0fJG+cCk14BbCfzY1uAZ94Bfrguly5jy3ngJ9ty6TIImZe3Ao+8A3yH6TL2ehv//fA9b+O/OHMptY8NmAUes2QeZR6Ey+Jq/qOGFL65bRiLT40YN/MzR0fwxbVp3LU5jXUXqH8GO9pGcdvGHIx2AbPML8xtTPg71iFgmako6GYmIBZnM+voXhYYbeZupciQ9BocQ0A0S4kpsNke3wXFvMf+hebp9mNsji+g2r22xyzHucBjFzC7m/+Jg5ljEi63NDyFfa/NwEdHdmPPKz/PAua2D1vw5hP34eDquTiw6iXjYu7v78fx5tVY9thdWPrYnbjYehJ0NY8nJE4ylgLmCd4wMPmD7sGhRgNDGyNSZHAUCxrZ7ss8SCfALAfl4s6xfMDMn9Mk5sP158U1ZJ2j1trMZF1g5q4g2F7AouTSLVQmgc61oomrWLHXydfH7+YaXJP9bv2RA3A3oo01SUlZcRPTZdix5NnP+8GFIJXPmUDi/DHkOXHd/wHHfF5ca1IFTpNr52+GaM2BOgSe1zEBcyOefpK/MAffD8bw1mz/wFNgMXpbFVAFVAFVQBVQBVQBVcAokBQw2/DYPicUtg+ByWEO5rEAM9vTvSy5l1nSGS3X9hh6Xr0K2DC32HM6l/d/AixrjYbH8z7w0mhcv3Zsl3OhMeMod8OLwI0vA7aT+VCbF+nOpV5O5p/v8q6XfAB8Yz1w3wZgxnte3fIzvpN5D/D9vcAP3gUImcfjONOXwd857mQBzOlRYMpWLyfzHzekMPt4fj5mps74rwNXTO5lG1DLOWNzDPcIA8ySD1lKF+QKTKYD2QXMdp2MJY5njsVYLCXNBiHwgz/6DwN+w9zLjOGCYtbFAczSzwXMjF+JgykxZJO/Uh3MBM2HVs42gDnV34PR0VHjYmYu5kNr5hqAPDg4aPIuy4Z/bWdPoHnRTLS3d6Crs6MmIHMNAOZt+DDW03EBDRMMj4txNMdamtVJXJQeRLIBkOM8tIGsfS7Aib+uPHlTWUFSUmAma7vGAmbe0gUGOvAwq0tpgDnbzT8xINFPDUAHeADQuY1LvK5VTYpdZtL1ZWGtDYWNu9yGv15Kl2uy+ZHzYbC4jfljgQuEBRTb36s8a7m2fsxsf3nmfAAdAN5+7mPL3VysXna75Np573B2XZzjpKfxdNgzbL33RnPz441oFQTM1Cv390UAvD1zPVcFVAFVQBVQBVQBVUAViFIgKWB2QTLHsR3MMi4BMwH0rNmLjVO5GAcz2xAmSxoNO1bYuHJfy+pToBDgjbr/410ZXBoE/nAyA+ZblnY8f/ZIxuQEfv5oNICW9oXKOIpd9wIQgMwLgO+uAL7X5G/8Z0Fms/Gfny6DkPmJ/V66jG9Z6TIImR96J85MSu/TPQxMeivnOBYw/IPmYbQNZnDtm949lrxOjQBrz4/iSFcmu3kf8bG9OaDEYMnYHMM9wgCzC5TdPnJtu44FOodBYsYjxBXATJczoTKveRSCxWzHVBcChjkG80IXAsNhYNqus89lTeUsJd3F8GCfSZHxftOcbD5myctslwKkWfJgigw6mNMDvTi7fxN2zH4EJ3etxPtrXkY6nTb5mE+8vRY75/0S/9e8Bm3nTmLb3OloPfwO2i6cR29P9TuZawAwN2LtiVYcLfmzF7+rc8BMKJaFSeaRtQFz8FXyoKmXUAI1ApiDK/CvXAeqC/pMsxwcjHYj54OyIHjMQbZgfeisiq4sB0TMG6yCmuSNVaAi+foivrsAcPYmIVDY+47d71PiuPX+AvznJvd8uI59v78PaL12Ths3Rt4PIQXEcm4n1856/83cZO0eHA/8reB9ma///OTui3YC9XnNWIV+uHEWpJeqgCqgCqgCqoAqoAqoArFTZHDTPkJe27VsnwsAttsQFJfiYGZfiWN/VQKeNVWGrUp1nxcCvGPdf7g5g3P9QEcKJicz8zK3p4CLA0DTWQ9A/3RvMsgcR72vzAYMZH4JmPQycPOrwC0LgNv+ANyxGPjqEuCupcA9jcDklcCU1cDX3wS+6TuZ798MPLANeHAHYDb9o5N5X5yZxOtDmGxDYQHDTHkhGwDesD6Ns/0Z3LHJA86fWpLC9BYvjQZHXX1uFH+6NJfDWeIxdthRacDM+ITJhMI8J0x+ds5CA4ttcMx6O1+yO1eByuKqtuEywTP7u0cUQGbbsDhu/yTXApWZJoMpMpgGgyXreU74LOd0OfOw2/GafQmYT+9ehfW/moqPTxzAmf0bQRfz8PCwycd8bGsDNjz1Y5w7vBeXz5/C9penY8/rs9Dy5gJ0tLfjk0sXqtrJXAOAOX5+42IcxBPdJslDHtrXhV7ZFBiEY+LC9FNOZO+NcR0C9kLHDalMDszsoP7cI+YThO2FQJgAMy++gMocYGN9sA1rBDQHUi7YUyzivFY0KWIpoU3Ku77QIcap0oesEc9bJSaRXDv/ueffgLx58/2Zhkbr70PWrZ2Fzf6aw5zY0k+gdCUE0JiqgCqgCqgCqoAqoArUoQJxHMzcpI/gN8ypTInC6u0UGczDbDuY2YfXssmfAGS6l3kedjBFxjOzF2s+5jBxqrBuLIBczD06lgmaXzzufXgujubZx5JD5jiS/ePvgC8/70PmFz3IbNJlLABu5cZ/hMxveJD57uU5yGw2/vMh81RCZm78R8i8C/jpOKXI4HqXto6AKTD+bFkq61j+zs5h41bmZn+ExX+9IoVV50azGwKyjvmY5fiwJ4O/8TcLFLjMmIztHjZoFeAaVbItgW3U/aj6ua8uBTfv40GgzNQY/DCWu8kgIbJb5865Vq4JhwmOCZPpUmZJBzPzL/OefdCxvHnmQ7h4aIfJv8x77Mt+TK2x6bcPGTcz02QQMq+bMRWrp0/GW//zPbS+uxl7F/0GTJfx8YXT2PrCo9gy51Gz8d+qGQ+i7cI5dHR0mVQaSXIlV6qvAuYJdjnbD2K9nScHZvWmCFDvmtTP+moRMNff+6IrUgVUAVVAFVAFVAFVoNYVKBUwExSLc9gFybZbWdqIPi5gJkym41li8JzAmOA4yrkssaQUEO2OJfe1rB4FioHISdoQMtPR/NDOeE7mOEp96X8BQmY6ma9/AbiRTmZu+mc7mV8H7qSTeZnnZL63CZiyBvj6Wm/Tv/s2Avdv4UaGwLd3Ao1n48wkXp/OdAZ0KBMMzzh4xaTCYG5lHgc6MgYu897nVqezAJrXj+zLOZi5ud9fLA86mBmTsfWoTQUymQzkQ8g8MjJiPleuXDGpMgh/h4aGDGTmpn99fX1mo7+enh50d3ejq6vbQObu7h7TplKwOE5cBcwKmCv2VtYPbCyfRPWuSf2sTwFz+Z56jaQKqAKqgCqgCqgCqsDVq0CpgPnqVUpXnkSBJPC42L7/tieDW9bn8jQX24/t4hzXPg180YbMvwdu8CHzTYTMC/10Ga/76TJsyMx0GWv9jf8ImTcDvzoQZxbJ+jS0jpiN+rgpH/Mr28f2S6MGLoszmeXn16Rx1Gr3s/1XAmk2/mRpCoypR20rIICZpUBmAmamymA+ZhsyDwwMgKC5t7c3AJo7O7sMaO7q6kF//0BVpM5QwKyAuWJvZv3AxvJJVO+a1Pv6yvck5EdS7fI10RpVQBVQBVQBVUAVUAVqXQEFzLX+DdbG/EuBvRPRNo6K//AUcO0s4EvPAl9+DrhuDnD974Eb5/pO5vnArQuB2xcBd9DJ3ADcvQyYvAKgk/lrlpN56ak4M0jeJz0KMC0G4fF169M43ReEzLwieJ734Qiazo2a9Bky6saLo/h0Y9C9/G0/xYa00bJ2FYgDmV03sziaOzu70d7eCcJmtiGUHhwcwtBQalzBswJmBcwVeyMVmOVLW++a1Pv68r/R8tWoduXTUiOpAqqAKqAKqAKqgCpQLQooYK6Wb6K+5zER0LiUMeOo//e/Bb7wpAeZjZP5OT9dhu9knrkDOHgJaOvzP/1Am/+5PADIJ87Y5ezz8VAGt27wUmX87coUGs+MIIiZg6PxHl3Kf+XAZcZgLD3qRwGBzHQx207mKDczncxu2gxJnUHY3NnZCTqbxd3MfM0Ez+P1UcCsgLlib6cCs3xp612TpOuz/3tQrZ7nf+vF1STVrrhRtJUqoAqoAqqAKqAKqAKqwHgqoIB5PNW+escqBfZORNs438zdc60GQ0AAAANOSURBVABCZtvJ/N+bgJYLcaJNbJ+udAZTtw/jU0s8R/Jnm9L49aEraOnI4PJQBszNfKo3gwUnRnDzhnS2Hf9NzD5TtgwrXJ7Yr7AiowtgllQZApmZlzkKMkvKDBs0M30GQbMNmwmc5dPV1YVKfCS+jK2AWQFzRV4UDaoKxFGgVqGyPe8469Y+qoAqoAqoAqqAKqAKqAL1qYAC5vr8XqttVRMBjUsZM45eF7uAhxd5kHnGOuCjnjhRqqcPIfLs4yP4S2fTPvvfku4527KPbA5YPavRmZRLARsyC2i2N/6z8zKH5WYW0CzpM+xczQJ+K1nKeBxfAbMC5nK9FxpHFVAFVAFVQBVQBVQBVUAVUAVUAVXAUkABsyWGnlZMgVJg70S0rdjCazAw3cyzjoyYDf7E0WyDZdZ9bnXatGFbPepfgTDILG5mOpldN7MNmgcHB03OZUmfYQNnQl/7IzC4HKUdV8ZWwKyAuf7fVl2hKqAKqAKqgCqgCqgCqoAqoAqoAhOgQGtrq/nH/wQMrUNeRQpMBDQudswvrBq9ir6J0pbafwU42uWlxmB6DJ53KlQuTcQ6am2DZjsvs50yI8zRPDQ0BIJmgc1MoyEfgb+VKmUcjq2AWQFzHb2OuhRVQBVQBVQBVUAVUAVUAVVAFVAFqkeBy5cvg5CZTmb9qAaVegaKhb3j3Y5weckpdeFWz18knUm1KxAGmcXNHAaa0+k06GiWD2GzfAQ6V7qU8RQwK2Cu9vdL56cKqAKqgCqgCqgCqoAqoAqoAqqAKqAKqAKqgCqgCtS9AjZk5rm4mV3QLKkz6GoWZzOBswudBT5XsuSYCpgVMNf9y6kLVAVUAVVAFVAFVAFVQBVQBVQBVUAVUAVUAVVAFVAFakWBYkCzuJrtXM0CnN1S4HO5Sje+AmYFzLXybuk8VQFVQBVQBVQBVUAVUAVUAVVAFVAFVAFVQBVQBVSBq0IBFzK7jmbb1UzY7AJnAc/jUSpgVsB8VbyUukhVQBVQBVQBVUAVUAVUAVVAFVAFVAFVQBVQBVQBVaDWFAgDzWGwWdJpCGwez1IBswLmWnuvdL6qgCqgCqgCqoAqoAqoAqqAKqAKqAKqgCqgCqgCqsBVp0AUbJZ6gczjXf4/0znndtSSFDMAAAAASUVORK5CYII=;" vertex="1" parent="1">
          <mxGeometry y="40" width="1432" height="786" as="geometry" />
        </mxCell>
        <mxCell id="Oz-58_zRyY06g9mLM46B-3" value="测试" style="html=1;shadow=0;dashed=0;align=center;verticalAlign=middle;shape=mxgraph.arrows2.arrow;dy=0;dx=30;notch=30;fontSize=18;" vertex="1" parent="1">
          <mxGeometry x="748" y="410" width="100" height="60" as="geometry" />
        </mxCell>
        <mxCell id="Oz-58_zRyY06g9mLM46B-4" value="开发" style="html=1;shadow=0;dashed=0;align=center;verticalAlign=middle;shape=mxgraph.arrows2.arrow;dy=0;dx=30;notch=30;fontSize=18;" vertex="1" parent="1">
          <mxGeometry x="618" y="410" width="100" height="60" as="geometry" />
        </mxCell>
        <mxCell id="Oz-58_zRyY06g9mLM46B-5" value="设计" style="html=1;shadow=0;dashed=0;align=center;verticalAlign=middle;shape=mxgraph.arrows2.arrow;dy=0;dx=30;notch=30;fontSize=18;" vertex="1" parent="1">
          <mxGeometry x="488" y="410" width="100" height="60" as="geometry" />
        </mxCell>
        <mxCell id="Oz-58_zRyY06g9mLM46B-6" value="需求分析" style="html=1;shadow=0;dashed=0;align=center;verticalAlign=middle;shape=mxgraph.arrows2.arrow;dy=0;dx=30;notch=30;fontSize=18;" vertex="1" parent="1">
          <mxGeometry x="358" y="410" width="132" height="60" as="geometry" />
        </mxCell>
        <mxCell id="Oz-58_zRyY06g9mLM46B-8" value="持续发布" style="html=1;shadow=0;dashed=0;align=center;verticalAlign=middle;shape=mxgraph.arrows2.arrow;dy=0;dx=30;notch=30;fontSize=18;strokeColor=#FF3333;" vertex="1" parent="1">
          <mxGeometry x="850" y="410" width="138" height="60" as="geometry" />
        </mxCell>
        <mxCell id="Oz-58_zRyY06g9mLM46B-9" value="生产运维" style="html=1;shadow=0;dashed=0;align=center;verticalAlign=middle;shape=mxgraph.arrows2.arrow;dy=0;dx=30;notch=30;fontSize=18;" vertex="1" parent="1">
          <mxGeometry x="990" y="410" width="140" height="60" as="geometry" />
        </mxCell>
        <mxCell id="Oz-58_zRyY06g9mLM46B-10" value="回顾" style="html=1;shadow=0;dashed=0;align=center;verticalAlign=middle;shape=mxgraph.arrows2.arrow;dy=0;dx=30;notch=30;fontSize=18;" vertex="1" parent="1">
          <mxGeometry x="1140" y="410" width="110" height="60" as="geometry" />
        </mxCell>
        <mxCell id="Oz-58_zRyY06g9mLM46B-11" value="HealthOperationService&lt;br style=&quot;font-size: 18px;&quot;&gt;" style="text;html=1;strokeColor=none;fillColor=none;align=center;verticalAlign=middle;whiteSpace=wrap;rounded=0;fontSize=18;" vertex="1" parent="1">
          <mxGeometry x="340" y="280" width="210" height="60" as="geometry" />
        </mxCell>
        <mxCell id="Oz-58_zRyY06g9mLM46B-12" value="" style="shape=callout;whiteSpace=wrap;html=1;perimeter=calloutPerimeter;rotation=-180;fontSize=18;" vertex="1" parent="1">
          <mxGeometry x="710" y="470" width="402" height="210" as="geometry" />
        </mxCell>
        <mxCell id="Oz-58_zRyY06g9mLM46B-13" value="Beta发布" style="text;html=1;strokeColor=none;fillColor=none;align=center;verticalAlign=middle;whiteSpace=wrap;rounded=0;fontSize=18;" vertex="1" parent="1">
          <mxGeometry x="730" y="520" width="90" height="30" as="geometry" />
        </mxCell>
        <mxCell id="Oz-58_zRyY06g9mLM46B-14" value="测试状态" style="text;html=1;strokeColor=none;fillColor=none;align=center;verticalAlign=middle;whiteSpace=wrap;rounded=0;fontSize=18;" vertex="1" parent="1">
          <mxGeometry x="848" y="520" width="92" height="30" as="geometry" />
        </mxCell>
        <mxCell id="Oz-58_zRyY06g9mLM46B-15" value="开源认证" style="text;html=1;strokeColor=none;fillColor=none;align=center;verticalAlign=middle;whiteSpace=wrap;rounded=0;fontSize=18;" vertex="1" parent="1">
          <mxGeometry x="730" y="580" width="90" height="30" as="geometry" />
        </mxCell>
        <mxCell id="Oz-58_zRyY06g9mLM46B-16" value="…" style="text;html=1;strokeColor=none;fillColor=none;align=center;verticalAlign=middle;whiteSpace=wrap;rounded=0;fontSize=18;" vertex="1" parent="1">
          <mxGeometry x="848" y="580" width="70" height="30" as="geometry" />
        </mxCell>
        <mxCell id="Oz-58_zRyY06g9mLM46B-17" value="" style="verticalLabelPosition=bottom;verticalAlign=top;html=1;shadow=0;dashed=0;strokeWidth=1;shape=mxgraph.ios.iArrowIcon;fillColor=#8BbEff;fillColor2=#135Ec8;strokeColor=#ffffff;sketch=0;fontSize=20;" vertex="1" parent="1">
          <mxGeometry x="718" y="527.5" width="15" height="15" as="geometry" />
        </mxCell>
        <mxCell id="Oz-58_zRyY06g9mLM46B-22" value="" style="verticalLabelPosition=top;html=1;shadow=0;dashed=0;verticalAlign=bottom;strokeWidth=1;shape=mxgraph.ios.iPin;fillColor2=#ccccff;fillColor3=#0000ff;strokeColor=#000066;" vertex="1" parent="1">
          <mxGeometry x="841" y="525" width="10" height="25" as="geometry" />
        </mxCell>
        <mxCell id="Oz-58_zRyY06g9mLM46B-23" value="" style="verticalLabelPosition=top;html=1;shadow=0;dashed=0;verticalAlign=bottom;strokeWidth=1;shape=mxgraph.ios.iPin;fillColor2=#00dd00;fillColor3=#004400;strokeColor=#006600;" vertex="1" parent="1">
          <mxGeometry x="718" y="585" width="10" height="25" as="geometry" />
        </mxCell>
        <mxCell id="Oz-58_zRyY06g9mLM46B-24" value="V23.6" style="text;html=1;strokeColor=none;fillColor=none;align=center;verticalAlign=middle;whiteSpace=wrap;rounded=0;fontSize=18;" vertex="1" parent="1">
          <mxGeometry x="340" y="330" width="70" height="60" as="geometry" />
        </mxCell>
        <mxCell id="Oz-58_zRyY06g9mLM46B-25" value="" style="html=1;verticalLabelPosition=bottom;labelBackgroundColor=#ffffff;verticalAlign=top;shadow=0;dashed=0;strokeWidth=2;shape=mxgraph.ios7.misc.down;strokeColor=#0080f0;" vertex="1" parent="1">
          <mxGeometry x="408" y="360" width="14" height="8" as="geometry" />
        </mxCell>
      </root>
    </mxGraphModel>
  </diagram>
</mxfile>
